/* XPM */
static char *bddd9ae004a34ea4bd3e88fe127c378fh7ggYXteucYlHDqp[] = {
/* columns rows colors chars-per-pixel */
"100 100 4 1 ",
"  c None",
". c black",
"X c #3D383D",
"o c #CCC4CC",
/* pixels */
"                                                                                                    ",
"                                                                                                    ",
"                                                                                                    ",
"                                                                                                    ",
"                                                                                                    ",
"                                                                                                    ",
"                                                                                                    ",
"                                                                                                    ",
"                                                                                                    ",
"                                                                                                    ",
"                                                                                                    ",
"                                                                                                    ",
"                                                                                                    ",
"                                            ...XXX                                                  ",
"                                            ...XXXo                                                 ",
"                                            ...XXX                                                  ",
"                                            ...XXX                                                  ",
"                                            ...XXX                                                  ",
"                                            ...XXX                                                  ",
"                                            ...XXX                                                  ",
"                                            ...XXX                                                  ",
"                                            ...XXX                                                  ",
"                                            ...XXX                                                  ",
"                                            ...XXX                                                  ",
"                                            ...XXX                                                  ",
"                                            ...XXX                                                  ",
"                                            ...XXX                                                  ",
"                                            ...XXX                                                  ",
"                                            ...XXX                                                  ",
"                                            ...XXX                                                  ",
"                                            ...XXX                                                  ",
"                                            ...XXX                                                  ",
"                                            ...XXX                                                  ",
"                                            ...XXX                                                  ",
"                                            ...XXX                                                  ",
"                                            ...XXX                                                  ",
"                                            ...XXX                                                  ",
"                                            ...XXX                                                  ",
"                                            ...XXX                                                  ",
"                                            ...XXX                                                  ",
"                                            ...XXX                                                  ",
"                                            ...XXX                                                  ",
"                                            ...XXX                                                  ",
"                                            ...XXX                                                  ",
"                                            ...XXX                                                  ",
"                                            ...XXX                                                  ",
"                                            ...XXX                                                  ",
"                                            ...XXX                                                  ",
"                                            ...XXX                                                  ",
"                                            ...XXX                                                  ",
"                                            ...XXX                                                  ",
"                                            ...XXX                                                  ",
"                                            ...XXX                                                  ",
"                                            ...XXX                                                  ",
"                                            ...XXX                                                  ",
"                                            ...XXX                                                  ",
"                                            ...XXX                                                  ",
"                                            ...XXX                                                  ",
"                                            ...XXX                                                  ",
"                                            ...XXX                                                  ",
"                                            ...XXX                                                  ",
"                                            ...XXX                                                  ",
"                                            ...XXX                                                  ",
"                                            ...XXX                                                  ",
"                                            ...XXX                                                  ",
"                                            ...XXX                                                  ",
"                                            ...XXX                                                  ",
"                                            ...XXX                                                  ",
"                                            ...XXX                                                  ",
"                                            ...XXX                                                  ",
"                                            ...XXX                                                  ",
"                                            ...XXX                                                  ",
"                                            ...XXX                                                  ",
"                                            ...XXX                                                  ",
"                                            ...XXX                                                  ",
"                                            ...XXX                                                  ",
"                                            ...XXX                                                  ",
"                                            ...XXX                                                  ",
"                                            ...XXX                                                  ",
"                                            ...XXX                                                  ",
"                                            ...XXX                                                  ",
"                                            ...XXX                                                  ",
"                                            ...XXX                                                  ",
"                                            ...XXX                                                  ",
"                                            ...XXX                                                  ",
"                                            ...XXX                                                  ",
"                                            ...XXX                                                  ",
"                                            ...XXX                                                  ",
"                                            ...XXX                                                  ",
"                                            ...XXXo                                                 ",
"                                            ...XXX                                                  ",
"                                                                                                    ",
"                                                                                                    ",
"                                                                                                    ",
"                                                                                                    ",
"                                                                                                    ",
"                                                                                                    ",
"                                                                                                    ",
"                                                                                                    ",
"                                                                                                    "
};
