/* XPM */
static char *wall_computer1650635090[] = {
/* columns rows colors chars-per-pixel */
"100 100 9 1 ",
"  c None",
". c black",
"X c gray6",
"o c #3D383D",
"O c #522222",
"+ c #0059FF",
"@ c #8A8688",
"# c #CCC4CC",
"$ c #EDEAED",
/* pixels */
"                                                                                                    ",
"                                                                                                    ",
"                                                                                                    ",
"                                                                                                    ",
"                                                                                                    ",
"                                                                                                    ",
"                                                                                                    ",
"                                                                                                    ",
"                                                                                                    ",
"                                                                                                    ",
"                                                                                                    ",
"                                                                                                    ",
"                                                                                                    ",
"                   oooooooooooooooooooooooooooooooooXooooooooooooooooooooooooooooooooooo            ",
"                   o#ooooooooooooooooooooooooooooo#oXo#ooooooooooooooooooooooooooooooo#o            ",
"                   oooooooooooooooooooooooooooooooooXooooooooooooooooooooooooooooooooooo            ",
"                   oooooooooooooooooooooooooooooooooXooooooooooooooooooooooooooooooooooo            ",
"                   oooooooooooooooooooooooooooooooooXooooooooooooooooooooooooooooooooooo            ",
"                   oooooooooooooooooooooooooooooooooXooooooooooooooooooooooooooooooooooo            ",
"                   oooooooooooooooooooooooooooooooooXooooooooooooooooooooooooooooooooooo            ",
"                   oooooooooooooooooooooooooooooooooXooooooooooooooooooooooooooooooooooo            ",
"                   oooooooooooooooooooooooooooooooooXooooooooooooooooooooooooooooooooooo            ",
"                   oooooooooooooooooooooooooooooooooXooooooooooooooooooooooooooooooooooo            ",
"                   oooooooooooooooooooooooooooooooooXooooooooooooooooooooooooooooooooooo            ",
"                   oo.................................................................oo            ",
"                   oo.+++++++++++++++++++++++++++++++++++++++++++++++++++++++++++++++.oo            ",
"                   oo.+$+$+$$+$+$++$$$+++++++++++++++++++++++++++++++++++++++++++++++.oo            ",
"                   oo.+$$$+$++$+$++$+$+++++++++++++++++++++++++++++++++++++++++++++++.oo            ",
"                   oo.+$+$+$$+$$$$+$$$+++++++++++++++++++++++++++++++++++++++++++++++.oo            ",
"                   oo.+++++++++++++++++++++++++++++++++++++++++++++++++++++++++++++++.oo            ",
"                   oo.+++++++++++++++++++++++++++++++++++++++++++++++++++++++++++++++.oo            ",
"                   oo.+$$$$$$$$$$$$$$++++++++++++++++++++++++++++++++++++++++++++++++.oo            ",
"                   oo.+++++++++++++++++++++++++++++++++++++++++$$$$$$$$$+++++++++++++.oo            ",
"                   oo.+++++++++++++++++++++++++++++++++++++++$$$$$$$$$$$$$+++++++++++.oo            ",
"                   oo.+++++++++++++++++++++++++++++++++++++$$$$$$$$$$$$$$$$$+++++++++.oo            ",
"                   oo.+$$$$$$$$$$$$$$$$$$$$$$+++++++++++++$$$$OO$$OO$O$$$$$$$++++++++.oo            ",
"                   oo.+++++++++++++++++++++++++++++++++++$$$OOO$$$$$$O$$$$$$$$+++++++.oo            ",
"                   oo.++++++++++++++++++++++++++++++++++$$$$OOOOOOO$$$OOOOOOOO$++++++.oo            ",
"                   oo.+++++++++++++++++++++++++++++++++$$$$OOOOOOOO$$OOOOOOOOOO$+++++.oo            ",
"                   oo.+$$$$$$$$$$$$$$$$$$++++++++++++++$$$$OOOOOOO$$$OOOOOOOOOO$+++++.oo            ",
"                   oo.++++++++++++++++++++++++++++++++$$$$OOOOOOO$$$OOOO$OOOOOOO$++++.oo            ",
"                   oo.++++++++++++++++++++++++++++++++$$$$OOOOOO$$$$OOOOOOOOOOOO$++++.oo            ",
"                   oo.++++++++++++++++++++++++++++++++$$$$OO$OO$$$$$$O$OOOOOOOO$$++++.oo            ",
"                   oo.+$$$$$$$$$$$$$$$$$$$$$$+++++++++$$$$$$$$O$$$$$$$$$$OOOO$$$$++++.oo            ",
"                   oo.++++++++++++++++++++++++++++++++$$$$$$$$O$$$$$OO$$$OOOO$$$$++++.oo            ",
"                   oo.+++++++++++++++++++++++++++++++++$$$$$$OOOOOO$OOOOOOOOO$$$+++++.oo            ",
"                   oo.+++++++++++++++++++++++++++++++++$$$$$$OOOOOO$OOOOOOO$$$$$+++++.oo            ",
"                   oo.+$$$$$$$$$$$$$$$$$$$$$++++++++++++$$$$OOOOOO$$OOOOOOO$$$$++++++.oo            ",
"                   oo.+++++++++++++++++++++++++++++++++++$$$OOOOO$$OOOOOOOO$$$+++++++.oo            ",
"                   oo.++++++++++++++++++++++++++++++++++++$$$OOOO$$OOOOOOO$$$++++++++.oo            ",
"                   oo.+++++++++++++++++++++++++++++++++++++$$$OOO$$$OOOO$$$$+++++++++.oo            ",
"                   oo.+$$$$$$$$$$$$$$$+++++++++++++++++++++++$$$$$$$$OO$$$+++++++++++.oo            ",
"                   oo.+++++++++++++++++++++++++++++++++++++++++$$$$$$$$$+++++++++++++.oo            ",
"                   oo.+++++++++++++++++++++++++++++++++++++++++++++++++++++++++++++++.oo            ",
"                   oo.+++++++++++++++++++++++++++++++++++++++++++++++++++++++++++++++.oo            ",
"                   oo.+++++++++++++++++++++++++++++++++++++++++++++++++++++++++++++++.oo            ",
"                   oo.+++++++++++++++++++++++++++++++++++++++++++++++++++++++++++++++.oo            ",
"                   oo.+++++++++++++++++++++++++++++++++++++++++++++++++++++++++++++++.oo            ",
"                   oo.+++++++++++++++++++++++++++++++++++++++++++++++++++++++++++++++.oo            ",
"                   oo.+++++++++++++++++++++++++++++++++++++++++++++++++++++++++++++++.oo            ",
"                   oo.+++++++++++++++++++++++++++++++++++++++++++++++++++++++++++++++.oo            ",
"                   oo.................................................................oo            ",
"                   ooooooooooooooooooo..............................oooooooooooooooooooo            ",
"                   ooooooooooooooooooo..@.@.@.@.@.@.@.@.@.....@@@...oooooooooooooooooooo            ",
"                   ooooooooooooooooooo.......................@@@@@..oooooooooooooooooooo            ",
"                   ooooooooooooooooooo..@.@.@.@.@.@.@.@.@....@@@@@..oooooooooooooooooooo            ",
"                   ooooooooooooooooooo.......................@@@@@..oooooooooooooooooooo            ",
"                   ooooooooooooooooooo..@.@.@.@@@@@.@.@.@.....@@@...oooooooooooooooooooo            ",
"                   ooooooooooooooooooo..............................oooooooooooooooooooo            ",
"                   ooooooooooooooooooo..............................oooooooooooooooooooo            ",
"                   oooooooooooooooooooooooooooooooooXooooooooooooooooooooooooooooooooooo            ",
"                   oooooooooooooooooooooooooooooooooXooooooooooooooooooooooooooooooooooo            ",
"                   oooooooooooooooooooooooooooooooooXooooooooooooooooooooooooooooooooooo            ",
"                   oooooooooooooooooooooooooooooooooXooooooooooooooooooooooooooooooooooo            ",
"                   oooooooooooooooooooooooooooooooooXooooooooooooooooooooooooooooooooooo            ",
"                   oooooooooooooooooooooooooooooooooXooooooooooooooooooooooooooooooooooo            ",
"                   oooooooooooooooooooooooooooooooooXooooooooooooooooooooooooooooooooooo            ",
"                   oooooooooooooooooooooooooooooooooXooooooooooooooooooooooooooooooooooo            ",
"                   oooooooooooooooooooooooooooooooooXooooooooooooooooooooooooooooooooooo            ",
"                   oooooooooooooooooooooooooooooooooXooooooooooooooooooooooooooooooooooo            ",
"                   oooooooooooooooooooooooooooooooooXooooooooooooooooooooooooooooooooooo            ",
"                   oooooooooooooooooooooooooooooooooXooooooooooooooooooooooooooooooooooo            ",
"                   oooooooooooooooooooooooooooooooooXooooooooooooooooooooooooooooooooooo            ",
"                   oooooooooooooooooooooooooooooooooXooooooooooooooooooooooooooooooooooo            ",
"                   oooooooooooooooooooooooooooooooooXooooooooooooooooooooooooooooooooooo            ",
"                   oooooooooooooooooooooooooooooooooXooooooooooooooooooooooooooooooooooo            ",
"                   oooooooooooooooooooooooooooooooooXooooooooooooooooooooooooooooooooooo            ",
"                   oooooooooooooooooooooooooooooooooXooooooooooooooooooooooooooooooooooo            ",
"                   o#oooooooooooooooooooooooooooooooXooooooooooooooooooooooooooooooooooo            ",
"                   ooooooooooooooooooooooooooooooo#oXo#ooooooooooooooooooooooooooooooo#o            ",
"                   oooooooooooooooooooooooooooooooooXooooooooooooooooooooooooooooooooooo            ",
"                                                                                                    ",
"                                                                                                    ",
"                                                                                                    ",
"                                                                                                    ",
"                                                                                                    ",
"                                                                                                    ",
"                                                                                                    ",
"                                                                                                    ",
"                                                                                                    "
};
