/* XPM */
static char *result[] = {
/* columns rows colors chars-per-pixel */
"100 100 6 1 ",
"  c gray6",
". c #3D383D",
"X c #FF2B2B",
"o c green",
"O c #CCC4CC",
"+ c None",
/* pixels */
"++++++++++++++++++++++++++++++++++++++++++++++++++++++++++++++++++++++++++++++++++++++++++++++++++++",
"++++++++++++++++++++++++++++++++++++++++++++++++++++++++++++++++++++++++++++++++++++++++++++++++++++",
"++++++++++++++++++++++++++++++++++++++++++++++++++++++++++++++++++++++++++++++++++++++++++++++++++++",
"++++++++++++++++++++++++++++++++++++++++++++++++++++++++++++++++++++++++++++++++++++++++++++++++++++",
"++++++++++++++++++++++++++++++++++++++++++++++++++++++++++++++++++++++++++++++++++++++++++++++++++++",
"++++++++++++++++++++++++++++++++++++++++++++++++++++++++++++++++++++++++++++++++++++++++++++++++++++",
"++++++++++++++++++++++++++++++++++++++++++++++++++++++++++++++++++++++++++++++++++++++++++++++++++++",
"++++++++++++++++++++++++++++++++++++++++++++++++++++++++++++++++++++++++++++++++++++++++++++++++++++",
"++++++++++++++++++++++++++++++++++++++++++++++++++++++++++++++++++++++++++++++++++++++++++++++++++++",
"++++++++++++++++++++++++++++++++++++++++++++++++++++++++++++++++++++++++++++++++++++++++++++++++++++",
"++++++++++++++++++++++++++++++++++++++++++++++++++++++++++++++++++++++++++++++++++++++++++++++++++++",
"++++++++++++++++++++++++++++++++++++++++++++++++++++++++++++++++++++++++++++++++++++++++++++++++++++",
"++++++++++++++++++++++++++++++++++++++++++++++++++++++++++++++++++++++++++++++++++++++++++++++++++++",
"+++++++++++++++++++.................................. ..................................++++++++++++",
"+++++++++++++++++++.O..............................O. .O..............................O.++++++++++++",
"+++++++++++++++++++.................................. ..................................++++++++++++",
"+++++++++++++++++++.................................. ..................................++++++++++++",
"+++++++++++++++++++.............................           .............................++++++++++++",
"+++++++++++++++++++..........................                 ..........................++++++++++++",
"+++++++++++++++++++.......................                       .......................++++++++++++",
"+++++++++++++++++++.....................                           .....................++++++++++++",
"+++++++++++++++++++....................                             ....................++++++++++++",
"+++++++++++++++++++..................                                 ..................++++++++++++",
"+++++++++++++++++++.................                                   .................++++++++++++",
"+++++++++++++++++++................                                     ................++++++++++++",
"+++++++++++++++++++...............                                       ...............++++++++++++",
"+++++++++++++++++++..............                                         ..............++++++++++++",
"+++++++++++++++++++.............                                           .............++++++++++++",
"+++++++++++++++++++............                                             ............++++++++++++",
"+++++++++++++++++++...........                                               ...........++++++++++++",
"+++++++++++++++++++...........                                               ...........++++++++++++",
"+++++++++++++++++++..........                                                 ..........++++++++++++",
"+++++++++++++++++++.........                                                   .........++++++++++++",
"+++++++++++++++++++.........                                                   .........++++++++++++",
"+++++++++++++++++++........                                                     ........++++++++++++",
"+++++++++++++++++++........                                                     ........++++++++++++",
"+++++++++++++++++++.......                                                       .......++++++++++++",
"+++++++++++++++++++.......                                                       .......++++++++++++",
"+++++++++++++++++++.......                                                       .......++++++++++++",
"+++++++++++++++++++......                                                         ......++++++++++++",
"+++++++++++++++++++......                                                         ......++++++++++++",
"+++++++++++++++++++......                                                         ......++++++++++++",
"+++++++++++++++++++.....                                                           .....++++++++++++",
"+++++++++++++++++++.....                                                           .....++++++++++++",
"+++++++++++++++++++.....                                                           .....++++++++++++",
"+++++++++++++++++++.....                                                           .....++++++++++++",
"+++++++++++++++++++....                                                             ....++++++++++++",
"+++++++++++++++++++....                                                             ....++++++++++++",
"+++++++++++++++++++....                                                             ....++++++++++++",
"+++++++++++++++++++....                                                             ....++++++++++++",
"+++++++++++++++++++....                                                             ....++++++++++++",
"+++++++++++++++++++....                                                             ....++++++++++++",
"+++++++++++++++++++....                                                             ....++++++++++++",
"+++++++++++++++++++....                                                                 ++++++++++++",
"+++++++++++++++++++....                                                              oo ++++++++++++",
"+++++++++++++++++++....                                                              oo ++++++++++++",
"+++++++++++++++++++....                                                                 ++++++++++++",
"+++++++++++++++++++....                                                              XX ++++++++++++",
"+++++++++++++++++++....                                                              XX ++++++++++++",
"+++++++++++++++++++....                                                              XX ++++++++++++",
"+++++++++++++++++++....                                                                 ++++++++++++",
"+++++++++++++++++++....                                                             ....++++++++++++",
"+++++++++++++++++++....                                                             ....++++++++++++",
"+++++++++++++++++++....                                                             ....++++++++++++",
"+++++++++++++++++++....                                                             ....++++++++++++",
"+++++++++++++++++++....                                                             ....++++++++++++",
"+++++++++++++++++++....                                                             ....++++++++++++",
"+++++++++++++++++++....                                                             ....++++++++++++",
"+++++++++++++++++++....                                                             ....++++++++++++",
"+++++++++++++++++++....                                                             ....++++++++++++",
"+++++++++++++++++++....                                                             ....++++++++++++",
"+++++++++++++++++++....                                                             ....++++++++++++",
"+++++++++++++++++++....                                                             ....++++++++++++",
"+++++++++++++++++++....                                                             ....++++++++++++",
"+++++++++++++++++++....                                                             ....++++++++++++",
"+++++++++++++++++++....                                                             ....++++++++++++",
"+++++++++++++++++++....                                                             ....++++++++++++",
"+++++++++++++++++++....                                                             ....++++++++++++",
"+++++++++++++++++++....                                                             ....++++++++++++",
"+++++++++++++++++++....                                                             ....++++++++++++",
"+++++++++++++++++++....                                                             ....++++++++++++",
"+++++++++++++++++++....                                                             ....++++++++++++",
"+++++++++++++++++++....                                                             ....++++++++++++",
"+++++++++++++++++++....                                                             ....++++++++++++",
"+++++++++++++++++++....                                                             ....++++++++++++",
"+++++++++++++++++++....                                                             ....++++++++++++",
"+++++++++++++++++++....                                                             ....++++++++++++",
"+++++++++++++++++++....                                                             ....++++++++++++",
"+++++++++++++++++++....                                                             ....++++++++++++",
"+++++++++++++++++++.O..                                                             ..O.++++++++++++",
"+++++++++++++++++++....                                                             ....++++++++++++",
"++++++++++++++++++++++++++++++++++++++++++++++++++++++++++++++++++++++++++++++++++++++++++++++++++++",
"++++++++++++++++++++++++++++++++++++++++++++++++++++++++++++++++++++++++++++++++++++++++++++++++++++",
"++++++++++++++++++++++++++++++++++++++++++++++++++++++++++++++++++++++++++++++++++++++++++++++++++++",
"++++++++++++++++++++++++++++++++++++++++++++++++++++++++++++++++++++++++++++++++++++++++++++++++++++",
"++++++++++++++++++++++++++++++++++++++++++++++++++++++++++++++++++++++++++++++++++++++++++++++++++++",
"++++++++++++++++++++++++++++++++++++++++++++++++++++++++++++++++++++++++++++++++++++++++++++++++++++",
"++++++++++++++++++++++++++++++++++++++++++++++++++++++++++++++++++++++++++++++++++++++++++++++++++++",
"++++++++++++++++++++++++++++++++++++++++++++++++++++++++++++++++++++++++++++++++++++++++++++++++++++",
"++++++++++++++++++++++++++++++++++++++++++++++++++++++++++++++++++++++++++++++++++++++++++++++++++++"
};
