/* XPM */
static char *result[] = {
/* columns rows colors chars-per-pixel */
"100 100 7 1 ",
"  c gray6",
". c #3D383D",
"X c #635F63",
"o c red",
"O c #FF2B2B",
"+ c #CCC4CC",
"@ c None",
/* pixels */
"@@@@@@@@@@@@@@@@@@@@@@@@@@@@@@@@@@@@@@@@@@@@@@@@@@@@@@@@@@@@@@@@@@@@@@@@@@@@@@@@@@@@@@@@@@@@@@@@@@@@",
"@@@@@@@@@@@@@@@@@@@@@@@@@@@@@@@@@@@@@@@@@@@@@@@@@@@@@@@@@@@@@@@@@@@@@@@@@@@@@@@@@@@@@@@@@@@@@@@@@@@@",
"@@@@@@@@@@@@@@@@@@@@@@@@@@@@@@@@@@@@@@@@@@@@@@@@@@@@@@@@@@@@@@@@@@@@@@@@@@@@@@@@@@@@@@@@@@@@@@@@@@@@",
"@@@@@@@@@@@@@@@@@@@@@@@@@@@@@@@@@@@@@@@@@@@@@@@@@@@@@@@@@@@@@@@@@@@@@@@@@@@@@@@@@@@@@@@@@@@@@@@@@@@@",
"@@@@@@@@@@@@@@@@@@@@@@@@@@@@@@@@@@@@@@@@@@@@@@@@@@@@@@@@@@@@@@@@@@@@@@@@@@@@@@@@@@@@@@@@@@@@@@@@@@@@",
"@@@@@@@@@@@@@@@@@@@@@@@@@@@@@@@@@@@@@@@@@@@@@@@@@@@@@@@@@@@@@@@@@@@@@@@@@@@@@@@@@@@@@@@@@@@@@@@@@@@@",
"@@@@@@@@@@@@@@@@@@@@@@@@@@@@@@@@@@@@@@@@@@@@@@@@@@@@@@@@@@@@@@@@@@@@@@@@@@@@@@@@@@@@@@@@@@@@@@@@@@@@",
"@@@@@@@@@@@@@@@@@@@@@@@@@@@@@@@@@@@@@@@@@@@@@@@@@@@@@@@@@@@@@@@@@@@@@@@@@@@@@@@@@@@@@@@@@@@@@@@@@@@@",
"@@@@@@@@@@@@@@@@@@@@@@@@@@@@@@@@@@@@@@@@@@@@@@@@@@@@@@@@@@@@@@@@@@@@@@@@@@@@@@@@@@@@@@@@@@@@@@@@@@@@",
"@@@@@@@@@@@@@@@@@@@@@@@@@@@@@@@@@@@@@@@@@@@@@@@@@@@@@@@@@@@@@@@@@@@@@@@@@@@@@@@@@@@@@@@@@@@@@@@@@@@@",
"@@@@@@@@@@@@@@@@@@@@@@@@@@@@@@@@@@@@@@@@@@@@@@@@@@@@@@@@@@@@@@@@@@@@@@@@@@@@@@@@@@@@@@@@@@@@@@@@@@@@",
"@@@@@@@@@@@@@@@@@@@@@@@@@@@@@@@@@@@@@@@@@@@@@@@@@@@@@@@@@@@@@@@@@@@@@@@@@@@@@@@@@@@@@@@@@@@@@@@@@@@@",
"@@@@@@@@@@@@@@@@@@@@@@@@@@@@@@@@@@@@@@@@@@@@@@@@@@@@@@@@@@@@@@@@@@@@@@@@@@@@@@@@@@@@@@@@@@@@@@@@@@@@",
"@@@@@@@@@@@@@@@@@@@.................................. ..................................@@@@@@@@@@@@",
"@@@@@@@@@@@@@@@@@@@.+................................ ................................+.@@@@@@@@@@@@",
"@@@@@@@@@@@@@@@@@@@.................................. ..................................@@@@@@@@@@@@",
"@@@@@@@@@@@@@@@@@@@.................................. ..................................@@@@@@@@@@@@",
"@@@@@@@@@@@@@@@@@@@.............................+++++++++++.............................@@@@@@@@@@@@",
"@@@@@@@@@@@@@@@@@@@..........................++++++++X++++++++..........................@@@@@@@@@@@@",
"@@@@@@@@@@@@@@@@@@@.......................+++++++++++X+++++++++++.......................@@@@@@@@@@@@",
"@@@@@@@@@@@@@@@@@@@.....................+++++++++++++X+++++++++++++.....................@@@@@@@@@@@@",
"@@@@@@@@@@@@@@@@@@@....................++++++++++++++X++++++++++++++....................@@@@@@@@@@@@",
"@@@@@@@@@@@@@@@@@@@..................++++++++++++++++X++++++++++++++++..................@@@@@@@@@@@@",
"@@@@@@@@@@@@@@@@@@@.................+++++++++++++++++X+++++++++++++++++.................@@@@@@@@@@@@",
"@@@@@@@@@@@@@@@@@@@................++++++++++++++++++X++++++++++++++++++................@@@@@@@@@@@@",
"@@@@@@@@@@@@@@@@@@@...............+++++++++++++++++++X+++++++++++++++++++...............@@@@@@@@@@@@",
"@@@@@@@@@@@@@@@@@@@..............++++++++++++++++++++X++++++++++++++++++++..............@@@@@@@@@@@@",
"@@@@@@@@@@@@@@@@@@@.............+++++++++++++++++++++X+++++++++++++++++++++.............@@@@@@@@@@@@",
"@@@@@@@@@@@@@@@@@@@............++++++++++++++++++++++X++++++++++++++++++++++............@@@@@@@@@@@@",
"@@@@@@@@@@@@@@@@@@@...........+++++++++++++++++++++++X+++++++++++++++++++++++...........@@@@@@@@@@@@",
"@@@@@@@@@@@@@@@@@@@...........+++++++++++++++++++++++X+++++++++++++++++++++++...........@@@@@@@@@@@@",
"@@@@@@@@@@@@@@@@@@@..........++++++++++++++++++++++++X++++++++++++++++++++++++..........@@@@@@@@@@@@",
"@@@@@@@@@@@@@@@@@@@.........+++++++++++++++++++++++++X+++++++++++++++++++++++++.........@@@@@@@@@@@@",
"@@@@@@@@@@@@@@@@@@@.........+++++++++++++++++++++++++X+++++++++++++++++++++++++.........@@@@@@@@@@@@",
"@@@@@@@@@@@@@@@@@@@........++++++++++++++++++++++++++X++++++++++++++++++++++++++........@@@@@@@@@@@@",
"@@@@@@@@@@@@@@@@@@@........++++++++++++++++++++++++++X++++++++++++++++++++++++++........@@@@@@@@@@@@",
"@@@@@@@@@@@@@@@@@@@.......+++++++++++++++++++++++++++X+++++++++++++++++++++++++++.......@@@@@@@@@@@@",
"@@@@@@@@@@@@@@@@@@@.......+++++++++++++++++++++++++++X+++++++++++++++++++++++++++.......@@@@@@@@@@@@",
"@@@@@@@@@@@@@@@@@@@.......+++++++++++++++++++++++++++X+++++++++++++++++++++++++++.......@@@@@@@@@@@@",
"@@@@@@@@@@@@@@@@@@@......++++++++++++++++++++++++++++X++++++++++++++++++++++++++++......@@@@@@@@@@@@",
"@@@@@@@@@@@@@@@@@@@......++++++++++++++++++++++++++++X++++++++++++++++++++++++++++......@@@@@@@@@@@@",
"@@@@@@@@@@@@@@@@@@@......++++++++++++++++++++++++++++X++++++++++++++++++++++++++++......@@@@@@@@@@@@",
"@@@@@@@@@@@@@@@@@@@.....+++++++++++++++++++++++++++++X+++++++++++++++++++++++++++++.....@@@@@@@@@@@@",
"@@@@@@@@@@@@@@@@@@@.....+++++++++++++++++++++++++++++X+++++++++++++++++++++++++++++.....@@@@@@@@@@@@",
"@@@@@@@@@@@@@@@@@@@.....+++++++++++++++++++++++++++++X+++++++++++++++++++++++++++++.....@@@@@@@@@@@@",
"@@@@@@@@@@@@@@@@@@@.....+++++++++++++++++++++++++++++X+++++++++++++++++++++++++++++.....@@@@@@@@@@@@",
"@@@@@@@@@@@@@@@@@@@....++++++++++++++++++++++++++++++X++++++++++++++++++++++++++++++....@@@@@@@@@@@@",
"@@@@@@@@@@@@@@@@@@@....++++++++++++++++++++++++++++++X++++++++++++++++++++++++++++++....@@@@@@@@@@@@",
"@@@@@@@@@@@@@@@@@@@....++++++++++++++++++++++++++++++X++++++++++++++++++++++++++++++....@@@@@@@@@@@@",
"@@@@@@@@@@@@@@@@@@@....++++++++++++++++++++++++++++++X++++++++++++++++++++++++++++++....@@@@@@@@@@@@",
"@@@@@@@@@@@@@@@@@@@....++++++++++++++++++++++++++++++X++++++++++++++++++++++++++++++....@@@@@@@@@@@@",
"@@@@@@@@@@@@@@@@@@@....++++++++++++++++++++++++++++++X++++++++++++++++++++++++++++++....@@@@@@@@@@@@",
"@@@@@@@@@@@@@@@@@@@....++++++++++++++++++++++++++++++X++++++++++++++++++++++++++++++....@@@@@@@@@@@@",
"@@@@@@@@@@@@@@@@@@@....++++++++++++++++++++++++++++++X++++++++++++++++++++++++++++++    @@@@@@@@@@@@",
"@@@@@@@@@@@@@@@@@@@....++++++++++++++++++++++++++++++X++++++++++++++++++++++++++++++ oo @@@@@@@@@@@@",
"@@@@@@@@@@@@@@@@@@@....++++++++++++++++++++++++++++++X++++++++++++++++++++++++++++++ oo @@@@@@@@@@@@",
"@@@@@@@@@@@@@@@@@@@....++++++++++++++++++++++++++++++X++++++++++++++++++++++++++++++    @@@@@@@@@@@@",
"@@@@@@@@@@@@@@@@@@@....++++++++++++++++++++++++++++++X++++++++++++++++++++++++++++++ OO @@@@@@@@@@@@",
"@@@@@@@@@@@@@@@@@@@....++++++++++++++++++++++++++++++X++++++++++++++++++++++++++++++ OO @@@@@@@@@@@@",
"@@@@@@@@@@@@@@@@@@@....++++++++++++++++++++++++++++++X++++++++++++++++++++++++++++++ OO @@@@@@@@@@@@",
"@@@@@@@@@@@@@@@@@@@....++++++++++++++++++++++++++++++X++++++++++++++++++++++++++++++    @@@@@@@@@@@@",
"@@@@@@@@@@@@@@@@@@@....++++++++++++++++++++++++++++++X++++++++++++++++++++++++++++++....@@@@@@@@@@@@",
"@@@@@@@@@@@@@@@@@@@....++++++++++++++++++++++++++++++X++++++++++++++++++++++++++++++....@@@@@@@@@@@@",
"@@@@@@@@@@@@@@@@@@@....++++++++++++++++++++++++++++++X++++++++++++++++++++++++++++++....@@@@@@@@@@@@",
"@@@@@@@@@@@@@@@@@@@....++++++++++++++++++++++++++++++X++++++++++++++++++++++++++++++....@@@@@@@@@@@@",
"@@@@@@@@@@@@@@@@@@@....++++++++++++++++++++++++++++++X++++++++++++++++++++++++++++++....@@@@@@@@@@@@",
"@@@@@@@@@@@@@@@@@@@....++++++++++++++++++++++++++++++X++++++++++++++++++++++++++++++....@@@@@@@@@@@@",
"@@@@@@@@@@@@@@@@@@@....++++++++++++++++++++++++++++++X++++++++++++++++++++++++++++++....@@@@@@@@@@@@",
"@@@@@@@@@@@@@@@@@@@....++++++++++++++++++++++++++++++X++++++++++++++++++++++++++++++....@@@@@@@@@@@@",
"@@@@@@@@@@@@@@@@@@@....++++++++++++++++++++++++++++++X++++++++++++++++++++++++++++++....@@@@@@@@@@@@",
"@@@@@@@@@@@@@@@@@@@....++++++++++++++++++++++++++++++X++++++++++++++++++++++++++++++....@@@@@@@@@@@@",
"@@@@@@@@@@@@@@@@@@@....++++++++++++++++++++++++++++++X++++++++++++++++++++++++++++++....@@@@@@@@@@@@",
"@@@@@@@@@@@@@@@@@@@....++++++++++++++++++++++++++++++X++++++++++++++++++++++++++++++....@@@@@@@@@@@@",
"@@@@@@@@@@@@@@@@@@@....++++++++++++++++++++++++++++++X++++++++++++++++++++++++++++++....@@@@@@@@@@@@",
"@@@@@@@@@@@@@@@@@@@....++++++++++++++++++++++++++++++X++++++++++++++++++++++++++++++....@@@@@@@@@@@@",
"@@@@@@@@@@@@@@@@@@@....++++++++++++++++++++++++++++++X++++++++++++++++++++++++++++++....@@@@@@@@@@@@",
"@@@@@@@@@@@@@@@@@@@....++++++++++++++++++++++++++++++X++++++++++++++++++++++++++++++....@@@@@@@@@@@@",
"@@@@@@@@@@@@@@@@@@@....++++++++++++++++++++++++++++++X++++++++++++++++++++++++++++++....@@@@@@@@@@@@",
"@@@@@@@@@@@@@@@@@@@....++++++++++++++++++++++++++++++X++++++++++++++++++++++++++++++....@@@@@@@@@@@@",
"@@@@@@@@@@@@@@@@@@@....++++++++++++++++++++++++++++++X++++++++++++++++++++++++++++++....@@@@@@@@@@@@",
"@@@@@@@@@@@@@@@@@@@....++++++++++++++++++++++++++++++X++++++++++++++++++++++++++++++....@@@@@@@@@@@@",
"@@@@@@@@@@@@@@@@@@@....++++++++++++++++++++++++++++++X++++++++++++++++++++++++++++++....@@@@@@@@@@@@",
"@@@@@@@@@@@@@@@@@@@....++++++++++++++++++++++++++++++X++++++++++++++++++++++++++++++....@@@@@@@@@@@@",
"@@@@@@@@@@@@@@@@@@@....++++++++++++++++++++++++++++++X++++++++++++++++++++++++++++++....@@@@@@@@@@@@",
"@@@@@@@@@@@@@@@@@@@....++++++++++++++++++++++++++++++X++++++++++++++++++++++++++++++....@@@@@@@@@@@@",
"@@@@@@@@@@@@@@@@@@@....++++++++++++++++++++++++++++++X++++++++++++++++++++++++++++++....@@@@@@@@@@@@",
"@@@@@@@@@@@@@@@@@@@....++++++++++++++++++++++++++++++X++++++++++++++++++++++++++++++....@@@@@@@@@@@@",
"@@@@@@@@@@@@@@@@@@@....++++++++++++++++++++++++++++++X++++++++++++++++++++++++++++++....@@@@@@@@@@@@",
"@@@@@@@@@@@@@@@@@@@....++++++++++++++++++++++++++++++X++++++++++++++++++++++++++++++....@@@@@@@@@@@@",
"@@@@@@@@@@@@@@@@@@@.+..++++++++++++++++++++++++++++++X++++++++++++++++++++++++++++++..+.@@@@@@@@@@@@",
"@@@@@@@@@@@@@@@@@@@....++++++++++++++++++++++++++++++X++++++++++++++++++++++++++++++....@@@@@@@@@@@@",
"@@@@@@@@@@@@@@@@@@@@@@@@@@@@@@@@@@@@@@@@@@@@@@@@@@@@@@@@@@@@@@@@@@@@@@@@@@@@@@@@@@@@@@@@@@@@@@@@@@@@",
"@@@@@@@@@@@@@@@@@@@@@@@@@@@@@@@@@@@@@@@@@@@@@@@@@@@@@@@@@@@@@@@@@@@@@@@@@@@@@@@@@@@@@@@@@@@@@@@@@@@@",
"@@@@@@@@@@@@@@@@@@@@@@@@@@@@@@@@@@@@@@@@@@@@@@@@@@@@@@@@@@@@@@@@@@@@@@@@@@@@@@@@@@@@@@@@@@@@@@@@@@@@",
"@@@@@@@@@@@@@@@@@@@@@@@@@@@@@@@@@@@@@@@@@@@@@@@@@@@@@@@@@@@@@@@@@@@@@@@@@@@@@@@@@@@@@@@@@@@@@@@@@@@@",
"@@@@@@@@@@@@@@@@@@@@@@@@@@@@@@@@@@@@@@@@@@@@@@@@@@@@@@@@@@@@@@@@@@@@@@@@@@@@@@@@@@@@@@@@@@@@@@@@@@@@",
"@@@@@@@@@@@@@@@@@@@@@@@@@@@@@@@@@@@@@@@@@@@@@@@@@@@@@@@@@@@@@@@@@@@@@@@@@@@@@@@@@@@@@@@@@@@@@@@@@@@@",
"@@@@@@@@@@@@@@@@@@@@@@@@@@@@@@@@@@@@@@@@@@@@@@@@@@@@@@@@@@@@@@@@@@@@@@@@@@@@@@@@@@@@@@@@@@@@@@@@@@@@",
"@@@@@@@@@@@@@@@@@@@@@@@@@@@@@@@@@@@@@@@@@@@@@@@@@@@@@@@@@@@@@@@@@@@@@@@@@@@@@@@@@@@@@@@@@@@@@@@@@@@@",
"@@@@@@@@@@@@@@@@@@@@@@@@@@@@@@@@@@@@@@@@@@@@@@@@@@@@@@@@@@@@@@@@@@@@@@@@@@@@@@@@@@@@@@@@@@@@@@@@@@@@"
};
