/* XPM */
static char *result[] = {
/* columns rows colors chars-per-pixel */
"100 100 3 1 ",
"  c gray16",
". c #CCC4CC",
"X c None",
/* pixels */
"XXXXXXXXXXXXXXXXXXXXXXXXXXXXXXXXXXXXXXXXXXXXXXXXXXXXXXXXXXXXXXXXXXXXXXXXXXXXXXXXXXXXXXXXXXXXXXXXXXXX",
"XXXXXXXXXXXXXXXXXXXXXXXXXXXXXXXXXXXXXXXXXXXXXXXXXXXXXXXXXXXXXXXXXXXXXXXXXXXXXXXXXXXXXXXXXXXXXXXXXXXX",
"XXXXXXXXXXXXXXXXXXXXXXXXXXXXXXXXXXXXXXXXXXXXXXXXXXXXXXXXXXXXXXXXXXXXXXXXXXXXXXXXXXXXXXXXXXXXXXXXXXXX",
"XXXXXXXXXXXXXXXXXXXXXXXXXXXXXXXXXXXXXXXXXXXXXXXXXXXXXXXXXXXXXXXXXXXXXXXXXXXXXXXXXXXXXXXXXXXXXXXXXXXX",
"XXXXXXXXXXXXXXXXXXXXXXXXXXXXXXXXXXXXXXXXXXXXXXXXXXXXXXXXXXXXXXXXXXXXXXXXXXXXXXXXXXXXXXXXXXXXXXXXXXXX",
"XXXXXXXXXXXXXXXXXXXXXXXXXXXXXXXXXXXXXXXXXXXXXXXXXXXXXXXXXXXXXXXXXXXXXXXXXXXXXXXXXXXXXXXXXXXXXXXXXXXX",
"XXXXXXXXXXXXXXXXXXXXXXXXXXXXXXXXXXXXXXXXXXXXXXXXXXXXXXXXXXXXXXXXXXXXXXXXXXXXXXXXXXXXXXXXXXXXXXXXXXXX",
"XXXXXXXXXXXXXXXXXXXXXXXXXXXXXXXXXXXXXXXXXXXXXXXXXXXXXXXXXXXXXXXXXXXXXXXXXXXXXXXXXXXXXXXXXXXXXXXXXXXX",
"XXXXXXXXXXXXXXXXXXXXXXXXXXXXXXXXXXXXXXXXXXXXXXXXXXXXXXXXXXXXXXXXXXXXXXXXXXXXXXXXXXXXXXXXXXXXXXXXXXXX",
"XXXXXXXXXXXXXXXXXXXXXXXXXXXXXXXXXXXXXXXXXXXXXXXXXXXXXXXXXXXXXXXXXXXXXXXXXXXXXXXXXXXXXXXXXXXXXXXXXXXX",
"XXXXXXXXXXXXXXXXXXXXXXXXXXXXXXXXXXXXXXXXXXXXXXXXXXXXXXXXXXXXXXXXXXXXXXXXXXXXXXXXXXXXXXXXXXXXXXXXXXXX",
"XXXXXXXXXXXXXXXXXXXXXXXXXXXXXXXXXXXXXXXXXXXXXXXXXXXXXXXXXXXXXXXXXXXXXXXXXXXXXXXXXXXXXXXXXXXXXXXXXXXX",
"XXXXXXXXXXXXXXXXXXXXXXXXXXXXXXXXXXXXXXXXXXXXXXXXXXXXXXXXXXXXXXXXXXXXXXXXXXXXXXXXXXXXXXXXXXXXXXXXXXXX",
"XXXXXXXXXXXXXXXXXXXXXXXXXXXXXXXXXXXXXXXXXXXXXXXXXXXXXXXXXXXXXXXXXXXXXXXXXXXXXXXXXXXXXXXXXXXXXXXXXXXX",
"XXXXXXXXXXXXXXXXXXXXXXXXXXXXXXXXXXXXXXXXXXXXXXXXXXXXXXXXXXXXXXXXXXXXXXXXXXXXXXXXXXXXXXXXXXXXXXXXXXXX",
"XXXXXXXXXXXXXXXXXXXXXXXXXXXXXXXXXXXXXXXXXXXXXXXXXXXXXXXXXXXXXXXXXXXXXXXXXXXXXXXXXXXXXXXXXXXXXXXXXXXX",
"XXXXXXXXXXXXXXXXXXXXXXXXXXXXXXXXXXXXXXXXXXXXXXXXXXXXXXXXXXXXXXXXXXXXXXXXXXXXXXXXXXXXXXXXXXXXXXXXXXXX",
"XXXXXXXXXXXXXXXXXXXXXXXXXXXXXXXXXXXXXXXXXXXXXXXXXXXXXXXXXXXXXXXXXXXXXXXXXXXXXXXXXXXXXXXXXXXXXXXXXXXX",
"XXXXXXXXXXXXXXXXXXXXXXXXXXXXXXXXXXXXXXXXXXXXXXXXXXXXXXXXXXXXXXXXXXXXXXXXXXXXXXXXXXXXXXXXXXXXXXXXXXXX",
"XXXXXXXXXXXXXXXXXXX.....................................................................XXXXXXXXXXXX",
"XXXXXXXXXXXXXXXXXXX.                                 .                                 .XXXXXXXXXXXX",
"XXXXXXXXXXXXXXXXXXX.                                 .                                 .XXXXXXXXXXXX",
"XXXXXXXXXXXXXXXXXXX.                                 .                                 .XXXXXXXXXXXX",
"XXXXXXXXXXXXXXXXXXX.                                 .                                 .XXXXXXXXXXXX",
"XXXXXXXXXXXXXXXXXXX.                                 .                                 .XXXXXXXXXXXX",
"XXXXXXXXXXXXXXXXXXX.                                 .                                 .XXXXXXXXXXXX",
"XXXXXXXXXXXXXXXXXXX.                                 .                                 .XXXXXXXXXXXX",
"XXXXXXXXXXXXXXXXXXX.                                 .                                 .XXXXXXXXXXXX",
"XXXXXXXXXXXXXXXXXXX.                                 .                                 .XXXXXXXXXXXX",
"XXXXXXXXXXXXXXXXXXX.                                 .                                 .XXXXXXXXXXXX",
"XXXXXXXXXXXXXXXXXXX.                                 .                                 .XXXXXXXXXXXX",
"XXXXXXXXXXXXXXXXXXX.                                 .                                 .XXXXXXXXXXXX",
"XXXXXXXXXXXXXXXXXXX.                                 .                                 .XXXXXXXXXXXX",
"XXXXXXXXXXXXXXXXXXX.                                 .                                 .XXXXXXXXXXXX",
"XXXXXXXXXXXXXXXXXXX.                                 .                                 .XXXXXXXXXXXX",
"XXXXXXXXXXXXXXXXXXX.                                 .                                 .XXXXXXXXXXXX",
"XXXXXXXXXXXXXXXXXXX.                                 .                                 .XXXXXXXXXXXX",
"XXXXXXXXXXXXXXXXXXX.                                 .                                 .XXXXXXXXXXXX",
"XXXXXXXXXXXXXXXXXXX.                                 .                                 .XXXXXXXXXXXX",
"XXXXXXXXXXXXXXXXXXX.                                 .                                 .XXXXXXXXXXXX",
"XXXXXXXXXXXXXXXXXXX.                                 .                                 .XXXXXXXXXXXX",
"XXXXXXXXXXXXXXXXXXX.                                 .                                 .XXXXXXXXXXXX",
"XXXXXXXXXXXXXXXXXXX.                                 .                                 .XXXXXXXXXXXX",
"XXXXXXXXXXXXXXXXXXX.                                 .                                 .XXXXXXXXXXXX",
"XXXXXXXXXXXXXXXXXXX.                                 .                                 .XXXXXXXXXXXX",
"XXXXXXXXXXXXXXXXXXX.                                 .                                 .XXXXXXXXXXXX",
"XXXXXXXXXXXXXXXXXXX.                                 .                                 .XXXXXXXXXXXX",
"XXXXXXXXXXXXXXXXXXX.                                 .                                 .XXXXXXXXXXXX",
"XXXXXXXXXXXXXXXXXXX.                                 .                                 .XXXXXXXXXXXX",
"XXXXXXXXXXXXXXXXXXX.                                 .                                 .XXXXXXXXXXXX",
"XXXXXXXXXXXXXXXXXXX.                                 .                                 .XXXXXXXXXXXX",
"XXXXXXXXXXXXXXXXXXX.                                 .                                 .XXXXXXXXXXXX",
"XXXXXXXXXXXXXXXXXXX.                                 .                                 .XXXXXXXXXXXX",
"XXXXXXXXXXXXXXXXXXX.....................................................................XXXXXXXXXXXX",
"XXXXXXXXXXXXXXXXXXX.                                 .                                 .XXXXXXXXXXXX",
"XXXXXXXXXXXXXXXXXXX.                                 .                                 .XXXXXXXXXXXX",
"XXXXXXXXXXXXXXXXXXX.                                 .                                 .XXXXXXXXXXXX",
"XXXXXXXXXXXXXXXXXXX.                                 .                                 .XXXXXXXXXXXX",
"XXXXXXXXXXXXXXXXXXX.                                 .                                 .XXXXXXXXXXXX",
"XXXXXXXXXXXXXXXXXXX.                                 .                                 .XXXXXXXXXXXX",
"XXXXXXXXXXXXXXXXXXX.                                 .                                 .XXXXXXXXXXXX",
"XXXXXXXXXXXXXXXXXXX.                                 .                                 .XXXXXXXXXXXX",
"XXXXXXXXXXXXXXXXXXX.                                 .                                 .XXXXXXXXXXXX",
"XXXXXXXXXXXXXXXXXXX.                                 .                                 .XXXXXXXXXXXX",
"XXXXXXXXXXXXXXXXXXX.                                 .                                 .XXXXXXXXXXXX",
"XXXXXXXXXXXXXXXXXXX.                                 .                                 .XXXXXXXXXXXX",
"XXXXXXXXXXXXXXXXXXX.                                 .                                 .XXXXXXXXXXXX",
"XXXXXXXXXXXXXXXXXXX.                                 .                                 .XXXXXXXXXXXX",
"XXXXXXXXXXXXXXXXXXX.                                 .                                 .XXXXXXXXXXXX",
"XXXXXXXXXXXXXXXXXXX.                                 .                                 .XXXXXXXXXXXX",
"XXXXXXXXXXXXXXXXXXX.                                 .                                 .XXXXXXXXXXXX",
"XXXXXXXXXXXXXXXXXXX.                                 .                                 .XXXXXXXXXXXX",
"XXXXXXXXXXXXXXXXXXX.                                 .                                 .XXXXXXXXXXXX",
"XXXXXXXXXXXXXXXXXXX.                                 .                                 .XXXXXXXXXXXX",
"XXXXXXXXXXXXXXXXXXX.                                 .                                 .XXXXXXXXXXXX",
"XXXXXXXXXXXXXXXXXXX.                                 .                                 .XXXXXXXXXXXX",
"XXXXXXXXXXXXXXXXXXX.                                 .                                 .XXXXXXXXXXXX",
"XXXXXXXXXXXXXXXXXXX.                                 .                                 .XXXXXXXXXXXX",
"XXXXXXXXXXXXXXXXXXX.                                 .                                 .XXXXXXXXXXXX",
"XXXXXXXXXXXXXXXXXXX.                                 .                                 .XXXXXXXXXXXX",
"XXXXXXXXXXXXXXXXXXX.                                 .                                 .XXXXXXXXXXXX",
"XXXXXXXXXXXXXXXXXXX.                                 .                                 .XXXXXXXXXXXX",
"XXXXXXXXXXXXXXXXXXX.                                 .                                 .XXXXXXXXXXXX",
"XXXXXXXXXXXXXXXXXXX.                                 .                                 .XXXXXXXXXXXX",
"XXXXXXXXXXXXXXXXXXX.                                 .                                 .XXXXXXXXXXXX",
"XXXXXXXXXXXXXXXXXXX.                                 .                                 .XXXXXXXXXXXX",
"XXXXXXXXXXXXXXXXXXX.                                 .                                 .XXXXXXXXXXXX",
"XXXXXXXXXXXXXXXXXXX.....................................................................XXXXXXXXXXXX",
"XXXXXXXXXXXXXXXXXXXXXXXXXXXXXXXXXXXXXXXXXXXXXXXXXXXXXXXXXXXXXXXXXXXXXXXXXXXXXXXXXXXXXXXXXXXXXXXXXXXX",
"XXXXXXXXXXXXXXXXXXXXXXXXXXXXXXXXXXXXXXXXXXXXXXXXXXXXXXXXXXXXXXXXXXXXXXXXXXXXXXXXXXXXXXXXXXXXXXXXXXXX",
"XXXXXXXXXXXXXXXXXXXXXXXXXXXXXXXXXXXXXXXXXXXXXXXXXXXXXXXXXXXXXXXXXXXXXXXXXXXXXXXXXXXXXXXXXXXXXXXXXXXX",
"XXXXXXXXXXXXXXXXXXXXXXXXXXXXXXXXXXXXXXXXXXXXXXXXXXXXXXXXXXXXXXXXXXXXXXXXXXXXXXXXXXXXXXXXXXXXXXXXXXXX",
"XXXXXXXXXXXXXXXXXXXXXXXXXXXXXXXXXXXXXXXXXXXXXXXXXXXXXXXXXXXXXXXXXXXXXXXXXXXXXXXXXXXXXXXXXXXXXXXXXXXX",
"XXXXXXXXXXXXXXXXXXXXXXXXXXXXXXXXXXXXXXXXXXXXXXXXXXXXXXXXXXXXXXXXXXXXXXXXXXXXXXXXXXXXXXXXXXXXXXXXXXXX",
"XXXXXXXXXXXXXXXXXXXXXXXXXXXXXXXXXXXXXXXXXXXXXXXXXXXXXXXXXXXXXXXXXXXXXXXXXXXXXXXXXXXXXXXXXXXXXXXXXXXX",
"XXXXXXXXXXXXXXXXXXXXXXXXXXXXXXXXXXXXXXXXXXXXXXXXXXXXXXXXXXXXXXXXXXXXXXXXXXXXXXXXXXXXXXXXXXXXXXXXXXXX",
"XXXXXXXXXXXXXXXXXXXXXXXXXXXXXXXXXXXXXXXXXXXXXXXXXXXXXXXXXXXXXXXXXXXXXXXXXXXXXXXXXXXXXXXXXXXXXXXXXXXX",
"XXXXXXXXXXXXXXXXXXXXXXXXXXXXXXXXXXXXXXXXXXXXXXXXXXXXXXXXXXXXXXXXXXXXXXXXXXXXXXXXXXXXXXXXXXXXXXXXXXXX",
"XXXXXXXXXXXXXXXXXXXXXXXXXXXXXXXXXXXXXXXXXXXXXXXXXXXXXXXXXXXXXXXXXXXXXXXXXXXXXXXXXXXXXXXXXXXXXXXXXXXX",
"XXXXXXXXXXXXXXXXXXXXXXXXXXXXXXXXXXXXXXXXXXXXXXXXXXXXXXXXXXXXXXXXXXXXXXXXXXXXXXXXXXXXXXXXXXXXXXXXXXXX"
};
