/* XPM */
static char *_4aec14a3e784947842ced36cd22759aXYFRPe5cs1VhxeOB[] = {
/* columns rows colors chars-per-pixel */
"100 100 4 1 ",
"  c #1B1C1B",
". c gray16",
"X c #CCC4CC",
"o c #CDC5CD",
/* pixels */
"XXXXoooooooooooooooooooooooooooooooooooooooooooooooooooooooooooooooooooooooooooooooooooooooooooooXXX",
"XXXXoooooooooooooooooooooooooooooooooooooooooooooooooooooooooooooooooooooooooooooooooooooooooooooooX",
"XX                                                                                                oX",
"XX .............................................................................................. oo",
"XX .oo........................................................................................oo. oo",
"oX .oo........................................................................................oo. oo",
"oo .............................................................................................. oo",
"oo .............................................................................................. oo",
"oo .............................................................................................. oo",
"oo .............................................................................................. oo",
"oo .............................................................................................. oo",
"oo .............................................................................................. oo",
"oo .............................................................................................. oo",
"oo .............................................................................................. oo",
"oo .............................................................................................. oo",
"oo .............................................................................................. oo",
"oo .............................................................................................. oo",
"oo .............................................................................................. oo",
"oo .............................................................................................. oo",
"oo .............................................................................................. oo",
"oo .............................................................................................. oo",
"oo .............................................................................................. oo",
"oo .............................................................................................. oo",
"oo .............................................................................................. oo",
"oo .............................................................................................. oo",
"oo .............................................................................................. oo",
"oo .............................................................................................. oo",
"oo .............................................................................................. oo",
"oo .............................................................................................. oo",
"oo .............................................................................................. oo",
"oo .............................................................................................. oo",
"oo .............................................................................................. oo",
"oo .............................................................................................. oo",
"oo .............................................................................................. oo",
"oo .............................................................................................. oo",
"oo .............................................................................................. oo",
"oo .............................................................................................. oo",
"oo .............................................................................................. oo",
"oo .............................................................................................. oo",
"oo .............................................................................................. oo",
"oo .............................................................................................. oo",
"oo .............................................................................................. oo",
"oo .............................................................................................. oo",
"oo .............................................................................................. oo",
"oo .............................................................................................. oo",
"oo .............................................................................................. oo",
"oo .............................................................................................. oo",
"oo .............................................................................................. oo",
"oo .............................................................................................. oo",
"oo .............................................................................................. oo",
"oo .............................................................................................. oo",
"oo .............................................................................................. oo",
"oo .............................................................................................. oo",
"oo .............................................................................................. oo",
"oo .............................................................................................. oo",
"oo .............................................................................................. oo",
"oo .............................................................................................. oo",
"oo .............................................................................................. oo",
"oo .............................................................................................. oo",
"oo .............................................................................................. oo",
"oo .............................................................................................. oo",
"oo .............................................................................................. oo",
"oo .............................................................................................. oo",
"oo .............................................................................................. oo",
"oo .............................................................................................. oo",
"oo .............................................................................................. oo",
"oo .............................................................................................. oo",
"oo .............................................................................................. oo",
"oo .............................................................................................. oo",
"oo .............................................................................................. oo",
"oo .............................................................................................. oo",
"oo .............................................................................................. oo",
"oo .............................................................................................. oo",
"oo .............................................................................................. oo",
"oo .............................................................................................. oo",
"oo .............................................................................................. oo",
"oo .............................................................................................. oo",
"oo .............................................................................................. oo",
"oo .............................................................................................. oo",
"oo .............................................................................................. oo",
"oo .............................................................................................. oo",
"oo .............................................................................................. oo",
"oo .............................................................................................. oo",
"oo .............................................................................................. oo",
"oo .............................................................................................. oo",
"oo .............................................................................................. oo",
"oo .............................................................................................. oo",
"oo .............................................................................................. oo",
"oo .............................................................................................. oo",
"oo .............................................................................................. oo",
"oo .............................................................................................. oo",
"oo .............................................................................................. oo",
"oo .............................................................................................. oo",
"oo .............................................................................................. oo",
"oo .oo........................................................................................oo. oo",
"oo .oo........................................................................................oo. oo",
"oo .............................................................................................. oo",
"Xo                                                                                                oX",
"XooooooooooooooooooooooooooooooooooooooooooooooooooooooooooooooooooooooooooooooooooooooooooooooooooX",
"XXXooooooooooooooooooooooooooooooooooooooooooooooooooooooooooooooooooooooooooooooooooooooooooooooXXX"
};
