/* XPM */
static char *fire1650635089[] = {
/* columns rows colors chars-per-pixel */
"70 100 134 2 ",
"   c None",
".  c #FF4700",
"X  c #FF4800",
"o  c #FF4900",
"O  c #FF4A00",
"+  c #FF4B00",
"@  c #FF4C00",
"#  c #FF4D00",
"$  c #FF4E00",
"%  c #FF5000",
"&  c #FF5100",
"*  c #FF5200",
"=  c #FF5400",
"-  c #FF5600",
";  c #FF5700",
":  c #FF5800",
">  c #FF5900",
",  c #FF5A00",
"<  c #FF5B00",
"1  c #FF5C00",
"2  c #FF5D00",
"3  c #FF5E00",
"4  c #FF6300",
"5  c #FF6500",
"6  c #FF6600",
"7  c #FF6700",
"8  c #FF6800",
"9  c #FF6A00",
"0  c #FF6D00",
"q  c #FF6E00",
"w  c #FF6F00",
"e  c #FF7000",
"r  c #FF7100",
"t  c #FF7200",
"y  c #FF7300",
"u  c #FF7400",
"i  c #FF7500",
"p  c #FF7600",
"a  c #FF7700",
"s  c #FF7800",
"d  c #FF7900",
"f  c #FF7A00",
"g  c #FF7B00",
"h  c #FF7C00",
"j  c #FF7D00",
"k  c #FF7F00",
"l  c #FF8000",
"z  c #FF8100",
"x  c #FF8200",
"c  c #FF8400",
"v  c #FF8500",
"b  c #FF8600",
"n  c #FF8A00",
"m  c DarkOrange",
"M  c #FF8D00",
"N  c #FF9000",
"B  c #FF9200",
"V  c #FF9500",
"C  c #FF9600",
"Z  c #FF9900",
"A  c #FF9A00",
"S  c #FF9B00",
"D  c #FF9C00",
"F  c #FF9D00",
"G  c #FF9E00",
"H  c #FFA000",
"J  c #FFA200",
"K  c orange",
"L  c #FFA700",
"P  c #FFA900",
"I  c #FFAA00",
"U  c #FFAB00",
"Y  c #FFAC00",
"T  c #FFAE00",
"R  c #FFAF00",
"E  c #FFB000",
"W  c #FFB100",
"Q  c #FFB200",
"!  c #FFB300",
"~  c #FFB400",
"^  c #FFB500",
"/  c #FFB600",
"(  c #FFB700",
")  c #FFB800",
"_  c #FFB900",
"`  c #FFBA00",
"'  c #FFBB00",
"]  c #FFBC00",
"[  c #FFBD00",
"{  c #FFBF00",
"}  c #FFC000",
"|  c #FFC100",
" . c #FFC900",
".. c #FFCA00",
"X. c #FFCB00",
"o. c #FFCC00",
"O. c #FFCF00",
"+. c #FFD000",
"@. c #FFD100",
"#. c #FFD800",
"$. c #FFDB00",
"%. c #FFDC00",
"&. c #FFDD00",
"*. c #FFDE00",
"=. c #FFDF00",
"-. c #FFE000",
";. c #FFE100",
":. c #FFE200",
">. c #FFE300",
",. c #FFE400",
"<. c #FFE500",
"1. c #FFE600",
"2. c #FFE700",
"3. c #FFE800",
"4. c #FFE900",
"5. c #FFEB00",
"6. c #FFED00",
"7. c #FFEE00",
"8. c #FFEF00",
"9. c #FFF000",
"0. c #FFF100",
"q. c #FFF200",
"w. c #FFF300",
"e. c #FFF400",
"r. c #FFF500",
"t. c #FFF600",
"y. c #FFF800",
"u. c #FFF900",
"i. c #FFFA00",
"p. c #FFFB00",
"a. c #FFFC00",
"s. c #FFFD00",
"d. c #FFFE00",
"f. c yellow",
/* pixels */
"                                                                                                                                            ",
"                                                                                                                                            ",
"                                                                                                                                            ",
"                                                                                                                                            ",
"                                                                                                                                            ",
"                                                                                                                                            ",
"                                                                                                                                            ",
"                                                                    # #                                                                     ",
"                                                                  # # # #                                                                   ",
"                                                                  # # # #                                                                   ",
"                                                                  # # # #                                                                   ",
"                                                                  # # # #                                                                   ",
"                                                                  # # # #                                                                   ",
"                                                                  # # # #                                                                   ",
"                                                                  # # # #                                                                   ",
"                                                                  # # # # # # # #                             # # # #                       ",
"                                                                  # # # # # # # #                             # # # #                       ",
"                                                                  # # # # # # # #                             # # # #                       ",
"                                                                  # # # # # # # #                             # # # #                       ",
"                                                                  # # # # # # # #                             # # # #                       ",
"                                                                  # # # # # # # #                             # # # #                       ",
"                                                                  # # # # * * * *                             # # # #                       ",
"                                                                  # # # 8  .@.@.S + # #                       # # # #                       ",
"                                                                  # # + y p.f.f.P + # #                       # # # #                       ",
"                                                                  # # + u t.f.f.P + + #                       # # # #                       ",
"                                                                  # # + u t.f.f.( 7 8 8                       # # # #                       ",
"                                                                  # # + u t.f.f.p.8.8.4.s + # #               # # # #                       ",
"                                                                  # # + u t.f.f.f.f.f.p.h + # #               # # # #                       ",
"                                                                  # # + u p.f.f.f.f.f.p.s . + +               # # # #                       ",
"                                                                    # + w ( ) ) $.f.f.p.T N N m                 # # #                       ",
"                      # # # #                                             # # + J f.f.f.f.f.f.=.> + # #                                     ",
"                      # # # #                                             # # + J f.f.f.f.f.f.=.> # # #                                     ",
"                      # # # #                                             # # + J f.f.f.f.f.f.=.> + # #                                     ",
"                      # # # #                       # # #                 # # + J f.f.f.f.f.f.=.> + # #                                     ",
"                      # # # #                       # # #                 # # + J f.f.f.f.f.f.=.> + # #                                     ",
"                      # # # #                       # # #                 # + + J f.f.f.f.f.f.=.> # # #                                     ",
"                      # # # #                       # # #                 # # + J f.f.f.f.f.f.=.> # # #                                     ",
"              # # # # # # # #                       # # #                 # # + J f.f.f.f.f.f.=.> + # #                                     ",
"              # # # # # # # #                       # # #                 + # + J f.f.f.f.f.f.=.> + # #                                     ",
"              # # # # # # # #                       # # #                 + + . J f.f.f.f.f.f.=.> # # #                                     ",
"              # # # # # # # #                       # # # #               z z h { f.f.f.f.f.f.=.> + # #                                     ",
"              # # # # # # # #                       # # # # # # # # # + u w.f.p.f.f.f.f.f.f.f.=.> # # #                                     ",
"              # # # # # # # #                       # # # # # # # # # + y t.f.f.f.f.f.f.f.f.f.=.> # # #                                     ",
"              # # # # # # # #                       # # # # + + + + + + y t.f.f.f.f.f.f.f.f.f.-.> + # #                                     ",
"                    # # # # #                       # # # h W T T T T T { p.f.f.f.f.f.f.( S F V                                             ",
"                      # # # #                       # # # T f.f.f.f.f.f.f.f.f.f.f.f.f.t.u . + +                                             ",
"                      # # # #                       # # + P f.f.f.f.f.f.f.f.f.f.f.f.f.p.h + # #                                             ",
"                      # # # #                       # # + L t.w.t.f.f.f.f.f.f.f.p.w.t.8.s + # #                                             ",
"                      # # # #                             w y y s =.f.f.f.f.f.f.) y y y         # # #                                       ",
"                      # # # #                             + + + - $.f.f.f.f.f.f.P . + +         # # # #                                     ",
"                      # # # #                             # # + - #.f.f.f.f.f.f.P # # #         # # # #                                     ",
"                      # # # #                             # # # - #.f.f.f.f.f.f.P # # #         # # # #                                     ",
"                                    # # # #               # # + - #.f.f.f.f.f.f.P + # #         # # # #                                     ",
"                                    # # # #               # # # - #.f.f.f.f.f.f.P # # #         # # # #                                     ",
"                                    # # # #               # # + - #.f.f.f.f.f.f.L + + +         # # # #                                     ",
"                                    # # # #               # # # - #.f.f.f.f.f.f.o.S F S y     # # # # #                                     ",
"                                    # # # #               # # # - #.f.f.f.f.f.f.f.f.f.p.s + # # # # # #               # # # #               ",
"                                    # # # #               # # + - #.f.f.f.f.f.f.f.f.f.t.s + # # # # # #               # # # #               ",
"                                    # # # #               # # # - #.f.f.f.f.f.f.f.f.f.p.h # * # # # # #               # # # #               ",
"                                    # # # #               # # + - #.f.f.f.f.f.f.f.f.f.f.$. .o.( - # # #               # # # #               ",
"                                    # # # #               # # # - #.f.f.f.f.f.f.f.f.f.f.f.f.f.-.> + # #               # # # #               ",
"                                    # # # #               + + + * #.f.f.f.f.f.f.f.f.f.f.f.f.f.=.> # # #               # # # #               ",
"                                    # # # #               4 7 7 w =.f.f.f.f.f.f.f.f.f.f.f.f.f.=.> + # #               # # # #               ",
"                              # # # # # # #         # # + L 8.4.8.p.f.f.f.f.f.f.f.f.f.f.f.f.f.=.> # # #               # # # #               ",
"                              # # # # # # #         # # + P f.f.f.f.f.f.f.f.f.f.f.f.f.f.f.f.f.-.> # # #               # # # #               ",
"                              + + + + # # #         # # + P f.f.f.f.f.f.f.f.f.f.f.f.f.f.f.f.f.-.> + # #               # # # #               ",
"                            w m n n 7 # # #         # # # P f.f.f.f.f.f.f.f.f.f.f.f.f.p.@.} } W > # #                 # # # #               ",
"                      # # + z p.f.f.S + # #         # # + P f.f.f.f.f.f.f.f.f.f.f.f.f.p.s # # #                       # # # #               ",
"                      # # + z p.f.f.S . # #         # # + P f.f.f.f.f.f.f.f.f.f.f.f.f.p.s + # #                       # # # #               ",
"                      # # + z p.f.f.S + # #         # # + P f.f.f.f.f.f.f.f.f.f.f.f.f.t.s + # #                       # # # #               ",
"                      # # + z f.f.f.$.( ) ( 8 + + y ( ) ) =.f.f.f.f.f.f.f.f.f.f.f.f.f.p.h + # #                 # + 7 W ) { F # # #         ",
"                      # + + z p.f.f.f.f.f.t.w + # s f.f.f.f.f.f.f.f.f.f.f.f.f.f.f.f.f.t.h + # #               # # + 7 w.f.f.{ # # #         ",
"                      # + + h f.f.f.f.f.f.w.w + + s p.f.f.f.f.f.f.f.f.f.f.f.f.f.f.f.f.p.s + # +               # # + 7 8.f.f.) # # #         ",
"                      > 3 > m f.f.f.f.f.f.t.s > > b p.f.f.f.f.f.f.f.f.f.f.f.f.f.f.f.f.p.b > > 3               > 3 > y 8.f.f.) # # #         ",
"              # # + 3 @.-.<.4.f.f.f.f.f.f.f.<.-.-.4.f.f.f.f.f.f.f.f.f.f.f.f.f.f.f.f.f.f.4.-.-.o.> + # # # # # { -.-.<.f.f.f.) # # #         ",
"              # # # 3 <.f.f.f.f.f.f.f.f.f.f.f.f.f.f.f.f.f.f.f.f.f.f.f.f.f.f.f.f.f.f.f.f.f.f.f.=.> # # # # # *  .f.f.f.f.f.f.{ # # #         ",
"              # # # 3 <.f.f.f.f.f.f.f.f.f.f.f.f.f.f.f.f.f.f.f.f.f.f.f.f.f.f.f.f.f.f.f.f.f.f.f.=.- + + + + + #  .f.f.f.f.f.f.{ # # #         ",
"              # # + 3 <.f.f.f.f.f.f.f.f.f.f.f.f.f.f.f.f.f.f.f.f.f.f.f.f.f.f.f.f.f.f.f.f.f.f.f.<.b s h s h s h #.f.f.f.f.f.f.) # # #         ",
"              # # + 3 -.f.f.f.f.f.f.f.f.f.f.f.f.f.f.f.f.f.f.f.f.f.f.f.f.f.f.f.f.f.f.f.f.f.f.f.f.p.p.p.p.p.p.p.f.f.f.f.f.f.f.) # # #         ",
"              # # # 3 <.f.f.f.f.f.f.f.f.f.f.f.f.f.f.f.f.f.f.f.f.f.f.f.f.f.f.f.f.f.f.f.f.f.f.f.f.f.f.f.f.f.f.f.f.f.f.f.f.f.f.{ # # #         ",
"              # # # 3 <.f.f.f.f.f.f.f.f.f.f.f.f.f.f.f.f.f.f.f.f.f.f.f.f.f.f.f.f.f.f.f.f.f.f.f.f.f.f.f.f.f.f.f.f.f.f.f.f.f.f.) # # #         ",
"              # # # 3 -.f.f.f.f.f.f.f.f.f.f.f.f.f.f.f.f.f.f.f.f.f.f.f.f.f.f.f.f.f.f.f.f.f.f.f.f.f.f.f.f.f.f.f.f.f.f.f.f.f.f.{ # # #         ",
"              # # # 3 <.f.f.f.f.f.f.f.f.f.f.f.f.f.f.f.f.f.f.f.f.f.f.f.f.f.f.f.f.f.f.f.f.f.f.f.f.f.f.f.f.f.f.f.f.f.f.f.f.f.f.{ # # #         ",
"              # # + 3 <.f.f.f.f.f.f.f.f.f.f.f.f.f.f.f.f.f.f.f.f.f.f.f.f.f.f.f.f.f.f.f.f.f.f.f.f.f.f.f.f.f.f.f.f.f.f.f.f.f.f.) # # #         ",
"              # # # 3 =.p.p.p.f.f.f.f.f.f.f.f.f.f.f.f.f.f.f.f.f.f.f.f.f.f.f.f.f.f.f.f.f.f.f.f.f.f.f.f.f.f.f.f.f.f.f.f.t.p.p.( # # #         ",
"                      u u u F p.f.f.f.f.f.f.f.f.f.f.f.f.f.f.f.f.f.f.f.f.f.f.f.f.f.f.f.f.f.f.f.f.f.f.f.f.f.f.f.f.f.f.8.z u u y               ",
"                      + + . z p.f.f.f.f.f.f.f.f.f.f.f.f.f.f.f.f.f.f.f.f.f.f.f.f.f.f.f.f.f.f.f.f.f.f.f.f.f.f.f.f.f.f.-.3 + + +               ",
"                      # # + z f.f.f.f.f.f.f.f.f.f.f.f.f.f.f.f.f.f.f.f.f.f.f.f.f.f.f.f.f.f.f.f.f.f.f.f.f.f.f.f.f.f.f.<.3 + # #               ",
"                      # # + h =.=.=.w.f.f.f.f.f.f.f.f.f.f.f.f.f.f.f.f.f.f.f.f.f.f.f.f.f.f.f.f.f.f.f.f.f.f.f.f.<.=.=. .3 # # #               ",
"                              > - > ( f.f.f.f.f.f.f.f.f.f.f.f.f.f.f.f.f.f.f.f.f.f.f.f.f.f.f.f.f.f.f.f.f.f.f.f.n - - >                       ",
"                              # # + W f.f.f.f.f.f.f.f.f.f.f.f.f.f.f.f.f.f.f.f.f.f.f.f.f.f.f.f.f.f.f.f.f.f.f.p.z + + #                       ",
"                              # # + W f.f.f.f.f.f.f.f.f.f.f.f.f.f.f.f.f.f.f.f.f.f.f.f.f.f.f.f.f.f.f.f.f.f.f.f.z + # #                       ",
"                              # # # V ( ( ( W ( W ( W ( W ( ( W ( ( W ( W ( W ( ( ( W ( ( ( W ( W ( W ( ( ( W s + #                         ",
"                                    + + + # # + # # # # # + + # + # # + # # # # + + + + + # # + # # # # + + #                               ",
"                                    # # # # # # # # # # # # # # # # # # # # # # # # # # # # # # # # # # # # #                               ",
"                                    # # # # # # # # # # # # # # # # # # # # # # # # # # # # # # # # # # # # #                               ",
"                                                                                                                                            ",
"                                                                                                                                            ",
"                                                                                                                                            ",
"                                                                                                                                            "
};
