/* XPM */
static char *pixil_frame_01650635090[] = {
/* columns rows colors chars-per-pixel */
"100 100 8 1 ",
"  c None",
". c black",
"X c gray7",
"o c gray17",
"O c gray24",
"+ c #6E6C6E",
"@ c #3C42F0",
"# c gray59",
/* pixels */
"                               .......................................                              ",
"                 ..............#######################################..............                ",
"          .......###################################################################.......         ",
"     .....#################################################################################.....    ",
"  ...###########################################################################################... ",
" .###############################################.#################################################.",
".################################################.#################################################.",
"..###############################################.#################################################.",
".O...############################################.##############################################....",
".OOOO.....#######################################.#########################################.....OOO.",
".OOOOOOOOO.......##############################@@@@@################################.......OOOOOOOO.",
".OOOOOOOOO.oooooo..............###############@@@@@@@#################..............oooooo.OOOOOOOO.",
".OOOOOOOOO.oooooooooooooooooooo..............@@@@@@@@@................oooooooooooooooooooo.OOOOOOOO.",
".OOOOOOOOO.oooooooooooooooooooo.XXXXXXXXXXXX@@@@@@@@@@@XXXXXXXXXXXXXX.oooooooooooooooooooo.OOOOOOOO.",
".OOOOOOOOO.oooooooooooooooooooo.XXXXXXXXXXX@X@@@@@@@@@X@XXXXXXXXXXXXX.oooooooooooooooooooo.OOOOOOOO.",
".OOOOOOOOO.oooooooooooooooooooo.XXXXXXXXXX@XXX@@@@@@@XXX@XXXXXXXXXXXX.oooooooooooooooooooo.OOOOOOOO.",
".OOOOOOOOO.oooooooooooooooooooo.XXXXXXXXX@XXXXX@@@@@XXXXX@XXXXXXXXXXX.oooooooooooooooooooo.OOOOOOOO.",
".OOOOOOOOO.oooooooooooooooooooo.XXXXXXXX@XXXXXXX@@@XXXXXXX@XXXXXXXXXX.oooooooooooooooooooo.OOOOOOOO.",
".OOOOOOOOO.oooooooooooooooooooo.XXXXXXXXXXXXXXX@@@@@XXXXXXXXXXXXXXXXX.oooooooooooooooooooo.OOOOOOOO.",
".OOOOOOOOO.oooooooooooooooooooo.XXXXXXXXXXXXX@@@@@@@@@XXXXXXXXXXXXXXX.oooooooooooooooooooo.OOOOOOOO.",
".OOOOOOOOO.oooooooooooooooooooo.XXXXXXXXXXXXXXX@@@@@XXXXXXXXXXXXXXXXX.oooooooooooooooooooo.OOOOOOOO.",
".OOOOOOOOO.oooooooooooooooooooo.XXXXXXXXXXXXXXXX@@@XXXXXXXXXXXXXXXXXX.oooooooooooooooooooo.OOOOOOOO.",
".OOOOOOOOO.oooooooooooooooooooo.XXXXXXXXXXXXXXXXXXXXXXXXXXXXXXXXXXXXX.oooooooooooooooooooo.OOOOOOOO.",
".OOOOOOOOO.oooooooooooooooooooo.XXXXXXXXXXXXXXXXXXXXXXXXXXXXXXXXXXXXX.oooooooooooooooooooo.OOOOOOOO.",
".OOOOOOOOO.oooooooooooooooooooo.XXXXXXXXXXXXXXXXXXXXXXXXXXXXXXXXXXXXX.oooooooooooooooooooo.OOOOOOOO.",
".OOOOOOOOO.oooooooooooooooooooo.XXXXXXXXXXXXXXXXXXXXXXXXXXXXXXXXXXXXX.oooooooooooooooooooo.OOOOOOOO.",
".OOOOOOOOO.oooooooooooooooooooo.XXXXXXXXXXXXXXXXXXXXXXXXXXXXXXXXXXXXX.oooooooooooooooooooo.OOOOOOOO.",
".OOOOOOOOO.oooooooooooooooooooo.XXXXXXXXXXXXXXXXXXXXXXXXXXXXXXXXXXXXX.oooooooooooooooooooo.OOOOOOOO.",
".OOOOOOOOO.oooooooooooooooooooo.XXXXXXXXXXXXXXXXXXXXXXXXXXXXXXXXXXXXX.oooooooooooooooooooo.OOOOOOOO.",
".OOOOOOOOO.oooooooooooooooooooo.XXXXXXXXXXXXXXXXXXXXXXXXXXXXXXXXXXXXX.oooooooooooooooooooo.OOOOOOOO.",
".OOOOOOOOO.oooooooooooooooooooo.XXXXXXXXXXXXXXXXXXXXXXXXXXXXXXXXXXXXX.oooooooooooooooooooo.OOOOOOOO.",
".OOOOOOOOO.oooooooooooooooooooo.XXXXXXXXXXXXXXXXXXXXXXXXXXXXXXXXXXXXX.oooooooooooooooooooo.OOOOOOOO.",
".OOOOOOOOO.oooooooooooooooooooo.XXXXXXXXXXXXXXXXXXXXXXXXXXXXXXXXXXXXX.oooooooooooooooooooo.OOOOOOOO.",
".OOOOOOOOO.oooooooooooooooooooo.XXXXXXXXXXXXXXXXXXXXXXXXXXXXXXXXXXXXX.oooooooooooooooooooo.OOOOOOOO.",
".OOOOOOOOO.oooooooooooooooooooo.XXXXXXXXXXXXXXXXXXXXXXXXXXXXXXXXXXXXX.oooooooooooooooooooo.OOOOOOOO.",
".OOOOOOOOO.oooooooooooooooooooo.XXXXXXXXXXXXXXXXXXXXXXXXXXXXXXXXXXXXX.oooooooooooooooooooo.OOOOOOOO.",
".OOOOOOOOO.oooooooooooooooooooo.XXXXXXXXXXXXXXXXXXXXXXXXXXXXXXXXXXXXX.oooooooooooooooooooo.OOOOOOOO.",
".OOOOOOOOO.oooooooooooooooooooo.XXXXXXXXXXXXXXXXXXXXXXXXXXXXXXXXXXXXX.oooooooooooooooooooo.OOOOOOOO.",
".OOOOOOOOO.oooooooooooooooooooo.XXXXXXXXXXXXXXXXXXXXXXXXXXXXXXXXXXXXX.oooooooooooooooooooo.OOOOOOOO.",
".OOOOOOOOO.oooooooooooooooooooo.XXXXXXXXXXXXXXXXXXXXXXXXXXXXXXXXXXXXX.oooooooooooooooooooo.OOOOOOOO.",
".OOOOOOOOO.oooooooooooooooooooo.XXXXXXXXXXXXXXXXXXXXXXXXXXXXXXXXXXXXX.oooooooooooooooooooo.OOOOOOOO.",
".OOOOOOOOO.oooooooooooooooooooo.XXXXXXXXXXXXXXXXXXXXXXXXXXXXXXXXXXXXX.oooooooooooooooooooo.OOOOOOOO.",
".OOOOOOOOO.oooooooooooooooooooo.XXXXXXXXXXXXXXXXXXXXXXXXXXXXXXXXXXXXX.oooooooooooooooooooo.OOOOOOOO.",
".OOOOOOOOO.oooooooooooooooooooo.XXXXXXXXXXXXXXXXXXXXXXXXXXXXXXXXXXXXX.oooooooooooooooooooo.OOOOOOOO.",
".OOOOOOOOO.oooooooooooooooooooo.XXXXXXXXXXXXXXXXXXXXXXXXXXXXXXXXXXXXX.oooooooooooooooooooo.OOOOOOOO.",
".OOOOOOOOO.oooooooooooooooooooo.XXXXXXXXXXXXXXXXXXXXXXXXXXXXXXXXXXXXX.oooooooooooooooooooo.OOOOOOOO.",
".OOOOOOOOO.oooooooooooooooooooo.XXXXXXXXXXXXXXXXXXXXXXXXXXXXXXXXXXXXX.oooooooooooooooooooo.OOOOOOOO.",
".OOOOOOOOO.oooooooooooooooooooo.XXXXXXXXXXXXXXXXXXXXXXXXXXXXXXXXXXXXX.oooooooooooooooooooo.OOOOOOOO.",
".OOOOOOOOO.oooooooooooooooooooo.XXXXXXXXXXXXXXXXXXXXXXXXXXXXXXXXXXXXX.oooooooooooooooooooo.OOOOOOOO.",
".OOOOOOOOO.oooooooooooooooooooo.XXXXXXXXXXXXXXXXXXXXXXXXXXXXXXXXXXXXX.oooooooooooooooooooo.OOOOOOOO.",
".OOOOOOOOO.oooooooooooooooooooo.XXXXXXXXXXXXXXXXXXXXXXXXXXXXXXXXXXXXX.oooooooooooooooooooo.OOOOOOOO.",
".OOOOOOOOO.oooooooooooooooooooo.XXXXXXXXXXXXXXXXXXXXXXXXXXXXXXXXXXXXX.oooooooooooooooooooo.OOOOOOOO.",
".OOOOOOOOO.oooooooooooooooooooo.XXXXXXXXXXXXXXXXXXXXXXXXXXXXXXXXXXXXX.oooooooooooooooooooo.OOOOOOOO.",
".OOOOOOOOO.oooooooooooooooooooo.XXXXXXXXXXXXXXXXXXXXXXXXXXXXXXXXXXXXX.oooooooooooooooooooo.OOOOOOOO.",
".OOOOOOOOO.oooooooooooooooooooo.XXXXXXXXXXXXXXXXXXXXXXXXXXXXXXXXXXXXX.oooooooooooooooooooo.OOOOOOOO.",
".OOOOOOOOO.oooooooooooooooooooo.XXXXXXXXXXXXXXXXXXXXXXXXXXXXXXXXXXXXX.oooooooooooooooooooo.OOOOOOOO.",
".OOOOOOOOO.oooooooooooooooooooo.XXXXXXXXXXXXXXXXXXXXXXXXXXXXXXXXXXXXX.oooooooooooooooooooo.OOOOOOOO.",
".OOOOOOOOO.oooooooooooooooooooo.XXXXXXXXXXXXXXXXXXXXXXXXXXXXXXXXXXXXX.oooooooooooooooooooo.OOOOOOOO.",
".OOOOOOOOO.oooooooooooooooooooo.XXXXXXXXXXXXXXXXXXXXXXXXXXXXXXXXXXXXX.oooooooooooooooooooo.OOOOOOOO.",
".OOOOOOOOO.oooooooooooooooooooo.XXXXXXXXXXXXXXXXXXXXXXXXXXXXXXXXXXXXX.oooooooooooooooooooo.OOOOOOOO.",
".OOOOOOOOO.oooooooooooooooooooo.XXXXXXXXXXXXXXXXXXXXXXXXXXXXXXXXXXXXX.oooooooooooooooooooo.OOOOOOOO.",
".OOOOOOOOO.oooooooooooooooooooo.XXXXXXXXXXXXXXXXXXXXXXXXXXXXXXXXXXXXX.oooooooooooooooooooo.OOOOOOOO.",
".OOOOOOOOO.oooooooooooooooooooo.XXXXXXXXXXXXXXXXXXXXXXXXXXXXXXXXXXXXX.oooooooooooooooooooo.OOOOOOOO.",
".OOOOOOOOO.oooooooooooooooooooo.XXXXXXXXXXXXXXXXXXXXXXXXXXXXXXXXXXXXX.oooooooooooooooooooo.OOOOOOOO.",
".OOOOOOOOO.oooooooooooooooooooo.XXXXXXXXXXXXXXXXXXXXXXXXXXXXXXXXXXXXX.oooooooooooooooooooo.OOOOOOOO.",
".OOOOOOOOO.oooooooooooooooooooo.XXXXXXXXXXXXXXXXXXXXXXXXXXXXXXXXXXXXX.oooooooooooooooooooo.OOOOOOOO.",
".OOOOOOOOO.oooooooooooooooooooo.XXXXXXXXXXXXXXXXXXXXXXXXXXXXXXXXXXXXX.oooooooooooooooooooo.OOOOOOOO.",
".OOOOOOOOO.oooooooooooooooooooo.XXXXXXXXXXXXXXXXXXXXXXXXXXXXXXXXXXXXX.oooooooooooooooooooo.OOOOOOOO.",
".OOOOOOOOO.oooooooooooooooooooo.XXXXXXXXXXXXXXXXXXXXXXXXXXXXXXXXXXXXX.oooooooooooooooooooo.OOOOOOOO.",
".OOOOOOOOO.oooooooooooooooooooo.XXXXXXXXXXXXXXXXXXXXXXXXXXXXXXXXXXXXX.oooooooooooooooooooo.OOOOOOOO.",
".OOOOOOOOO.oooooooooooooooooooo.XXXXXXXXXXXXXXXXXXXXXXXXXXXXXXXXXXXXX.oooooooooooooooooooo.OOOOOOOO.",
".OOOOOOOOO.oooooooooooooooooooo.XXXXXXXXXXXXXXXXXXXXXXXXXXXXXXXXXXXXX.oooooooooooooooooooo.OOOOOOOO.",
".OOOOOOOOO.oooooooooooooooooooo.XXXXXXXXXXXXXXXXXXXXXXXXXXXXXXXXXXXXX.oooooooooooooooooooo.OOOOOOOO.",
".OOOOOOOOO.oooooooooooooooooooo.XXXXXXXXXXXXXXXXXXXXXXXXXXXXXXXXXXXXX.oooooooooooooooooooo.OOOOOOOO.",
".OOOOOOOOO.oooooooooooooooooooo.XXXXXXXXXXXXXXXXXXXXXXXXXXXXXXXXXXXXX.oooooooooooooooooooo.OOOOOOOO.",
".OOOOOOOOO.oooooooooooooooooooo.XXXXXXXXXXXXXXXXXXXXXXXXXXXXXXXXXXXXX.oooooooooooooooooooo.OOOOOOOO.",
".OOOOOOOOO.oooooooooooooooooooo.XXXXXXXXXXXXXXXXXXXXXXXXXXXXXXXXXXXXX.oooooooooooooooooooo.OOOOOOOO.",
".OOOOOOOOO.oooooooooooooooooooo.XXXXXXXXXXXXXXXXXXXXXXXXXXXXXXXXXXXXX.oooooooooooooooooooo.OOOOOOOO.",
".OOOOOOOOO.oooooooooooooooooooo.XXXXXXXXXXXXXXXXXXXXXXXXXXXXXXXXXXXXX.oooooooooooooooooooo.OOOOOOOO.",
".OOOOOOOOO.oooooooooooooooooooo.XXXXXXXXXXXXXXXXXXXXXXXXXXXXXXXXXXXXX.oooooooooooooooooooo.OOOOOOOO.",
".OOOOOOOOO.oooooooooooooooooooo.XXXXXXXXXXXXXXXXXXXXXXXXXXXXXXXXXXXXX.oooooooooooooooooooo.OOOOOOOO.",
".OOOOOOOOO.oooooooooooooooooooo.XXXXXXXXXXXXXXXXXXXXXXXXXXXXXXXXXXXXX.oooooooooooooooooooo.OOOOOOOO.",
".OOOOOOOOO.oooooooooooooooooooo.XXXXXXXXXXXXXXXXXXXXXXXXXXXXXXXXXXXXX.oooooooooooooooooooo.OOOOOOOO.",
".OOOOOOOOO.oooooooooooooooooooo.XXXXXXXXXXXXXXXXXXXXXXXXXXXXXXXXXXXXX.oooooooooooooooooooo.OOOOOOOO.",
".OOOOOOOOO.oooooooooooooooooooo.XXXXXXXXXXXXXXXXXXXXXXXXXXXXXXXXXXXXX.oooooooooooooooooooo.OOOOOOOO.",
".OOOOOOOOO.oooooooooooooooooooo.......................................oooooooooooooooooooo.OOOOOOOO.",
".OOOOOOOOO.ooooooooo............+++++++++++++++++++++++++++++++++++++............ooooooooo.OOOOOOOO.",
".OOOOOOOOO.o........+++++++++++++++++++++++++++++++++++++++++++++++++++++++++++++........o.OOOOOOOO.",
".OOOOOO.....+++++++++++++++++++++++++++++++++++++++++++++++++++++++++++++++++++++++++++++.....OOOOO.",
".OOO...+++++++++++++++++++++++++++++++++++++++++++++++++++++++++++++++++++++++++++++++++++++++...OO.",
".O..+++++++++++++++++++++++++++++++++++++++++++++++++++++++++++++++++++++++++++++++++++++++++++++...",
"..+++++++++++++++++++++++++++++++++++++++++++++++++++++++++++++++++++++++++++++++++++++++++++++++++.",
".++++++++++++++++++++++++++++++++++++++++++++++++++++++++++++++++++++++++++++++++++++++++++++++++++.",
" .+++++++++++++++++++++++++++++++++++++++++++++++++++++++++++++++++++++++++++++++++++++++++++++++++.",
"  ..+++++++++++++++++++++++++++++++++++++++++++++++++++++++++++++++++++++++++++++++++++++++++++++.. ",
"    ...+++++++++++++++++++++++++++++++++++++++++++++++++++++++++++++++++++++++++++++++++++++++...   ",
"       .....+++++++++++++++++++++++++++++++++++++++++++++++++++++++++++++++++++++++++++++.....      ",
"            ........+++++++++++++++++++++++++++++++++++++++++++++++++++++++++++++........           ",
"                    ............+++++++++++++++++++++++++++++++++++++............                   ",
"                                .....................................                               "
};
