/* XPM */
static char *_5bb47396cbb459ee97bd2e5955968edvD61djbp8SnCU2EZ[] = {
/* columns rows colors chars-per-pixel */
"50 50 162 2 ",
"   c None",
".  c #0C0B0E",
"X  c #1D0C0C",
"o  c #0E0E11",
"O  c #131216",
"+  c #16151B",
"@  c #18171D",
"#  c #1A191E",
"$  c #290F0F",
"%  c #350F0F",
"&  c #290F10",
"*  c #2F1110",
"=  c #301110",
"-  c #3A1010",
";  c #1D1C24",
":  c #1F1D28",
">  c #201F24",
",  c #211E28",
"<  c #212026",
"1  c #23222C",
"2  c #28272E",
"3  c #29292C",
"4  c #262432",
"5  c #292634",
"6  c #2B2933",
"7  c #2D2B3A",
"8  c #302F36",
"9  c #312E3F",
"0  c #32303E",
"q  c #323233",
"w  c #521717",
"e  c #561918",
"r  c #5C1A19",
"t  c #611B1A",
"y  c #6F1F1F",
"u  c #6F201F",
"i  c #322F41",
"p  c #353244",
"a  c #383646",
"s  c #3C3C43",
"d  c #373448",
"f  c #393649",
"g  c #3C3A4D",
"h  c #3F3B51",
"j  c #403F4C",
"k  c #423E55",
"l  c #3F4149",
"z  c #404147",
"x  c #44444B",
"c  c #45484F",
"v  c #4C4C4E",
"b  c #444156",
"n  c #4D4E55",
"m  c #46425A",
"M  c #48445C",
"N  c #4E5056",
"B  c #4E5058",
"V  c #515153",
"C  c #54565C",
"Z  c #57585F",
"A  c #5B5A5D",
"S  c #4D4963",
"D  c #534E6B",
"F  c #595A61",
"G  c #55506E",
"H  c #5C586D",
"J  c #565170",
"K  c #595573",
"L  c #5F5A79",
"P  c #605F62",
"I  c #615C77",
"U  c #615C7A",
"Y  c #5D6067",
"T  c #5F6268",
"R  c #616062",
"E  c #61646D",
"W  c #68676A",
"Q  c #69686C",
"!  c #626770",
"~  c #6B6D74",
"^  c #6E727D",
"/  c #707074",
"(  c #79797B",
")  c #922B29",
"_  c #9D2E2D",
"`  c #A02F2E",
"'  c #A4302E",
"]  c #AB312D",
"[  c #B33431",
"{  c #B93531",
"}  c #676182",
"|  c #6A6484",
" . c #6E6983",
".. c #6C6788",
"X. c #6E698A",
"o. c #726D8D",
"O. c #787A82",
"+. c #77718E",
"@. c #746F92",
"#. c #777295",
"$. c #797296",
"%. c #7B7598",
"&. c #85868A",
"*. c #88878B",
"=. c #89888C",
"-. c #838286",
";. c #8C8E98",
":. c #959498",
">. c #929195",
",. c #9496A1",
"<. c #9EA5B3",
"1. c #A0A7B7",
"2. c #A3A9B5",
"3. c #AAADB7",
"4. c #A9ADB7",
"5. c #A8AAB5",
"6. c #A3AAB9",
"7. c #A3AABA",
"8. c #A3AABB",
"9. c #A1A8B9",
"0. c #A4ABBB",
"q. c #AAADB8",
"w. c #B7B5BA",
"e. c #B8B6BA",
"r. c #BAB8BD",
"t. c #B1B6C2",
"y. c #B6BBC7",
"u. c #B5B9C5",
"i. c #B7BBC6",
"p. c #B7BBC8",
"a. c #B9BDC9",
"s. c #B9BCC8",
"d. c #BABECA",
"f. c #BABECB",
"g. c #BCBFCB",
"h. c #BFC2CD",
"j. c #BFC3CF",
"k. c #C3C1C6",
"l. c #C7C5CA",
"z. c #CBC9CE",
"x. c #C4C7D2",
"c. c #C4C8D3",
"v. c #C7CBD6",
"b. c #C8CBD6",
"n. c #C8CCD7",
"m. c #D1CED4",
"M. c #D3D0D6",
"N. c #D5D3D9",
"B. c #D9D6DD",
"V. c #DAD8DD",
"C. c #D6D9E2",
"Z. c #D6D9E3",
"A. c #D6DAE3",
"S. c #D7DAE3",
"D. c #D6DAE2",
"F. c #D5D9E2",
"G. c #DEDBE2",
"H. c #E0DDE3",
"J. c #E7E4EB",
"K. c #E9E6ED",
"L. c #EBE8EE",
"P. c #ECE9F0",
/* pixels */
"  # @ @ + @ o               3 3 3 3 < 3 3 < 3 3 < 3 3 3 3 3 3 3 2 3 q     O + @ + ; :               ",
"; D K K K K 2 . + O O O o n 5.3.5.5.5.5.4.3.4.3.4.4.2.>.&.&.&.-.&.:.Y . O . M K K ! H 2             ",
"; ..#.#.#.#.9 7 m b b m 7 N n.Z.F.F.V.D.Z.Z.Z.Z.V.D.j.x : 1 1 1 ; H R 4 b ; L #.@.@.o.H 8           ",
"< ..#.#.#.#.0 a D D D J d n n.Z.A.D.D.D.D.D.D.D.D.D.j.0 h D S D i F T 9 D ; L #.#.#.o.o.H 8         ",
"> ..#.$.#.#.0 f G D J J d N b.Z.A.A.Z.D.D.D.Z.D.D.D.j.0 l J J J i Z E 9 D : U #.#.#.$.@.o.H         ",
"> X.$.$.#.$.0 f J D D D d n b.Z.A.A.Z.Z.D.D.Z.Z.D.D.j.l h J D G d Z T 9 D > U %.$.#.#.#.o.o.H 5     ",
"> ..$.#.$.$.9 f J D D G d N v.C.Z.Z.Z.Z.D.Z.Z.Z.D.D.j.a h G D J i F E 9 D : U #.#.#.$.#.#.@.o.H 3   ",
"> ..$.#.$.$.0 f G D D G d N x.x.c.c.c.c.c.c.c.x.c.c.f.g l D D G p Z T 9 S : U #.%.#.%.#.$.#.@.o.I > ",
": ..#.#.$.$.9 f G G G G f n s.s.h.t.t.h.t.h.t.h.h.y.w.s l G D J p F Y p D ; U %.$.$.$.#.$.$.#.#.+.< ",
": ..#.#.$.$.9 f G G D G f n f.f.t.h.h.j.j.y.j.j.y.h.h.s h G D G p F T 7 D ; L %.#.#.$.$.#.#.#.%.$.< ",
"> ..#.#.$.$.9 f G G G G d n p.p.h.t.h.t.t.y.h.t.y.h.q.l l D D J p Z H 7 D ; L #.$.$.#.$.$.$.#.%.%.& ",
"> ..#.$.$.$.9 f G D D G f c 8.8.8.<.8.8.8.<.8.8.<.0.<.0 l J G J p B C i D ; U %.$.$.$.$.#.$.#.%.%.< ",
"> ..#.$.$.#.9 f G D D J f c 9.9.<.<.8.<.<.8.<.8.<.9.<.7 i h f h 4 n C i D : U #.$.#.#.#.#.#.#.%.%.> ",
"> ..$.#.$.$.9 p D D D D i c 0.8.8.8.8.8.8.<.8.8.8.8.<.H h l l l s ^ F 7 S : U #.$.$.#.#.#.#.#.%.O.> ",
"> ..#.#.#.#.i 9 S D S S f j ! ! ! ! ! ! ! ! ! ! ! ! ! ! T L ! ! I ! j p k ; } #.#.#.#.#.$.#.#.%.%.< ",
"> ..#.#.$.$.9 9 M k k M k g , 4 1 1 4 4 1 4 1 4 4 1 1 4 1 4 4 : 1 4 p k k ; } #.#.#.#.#.#.#.#.%.%.< ",
"> ..$.$.$.#.9 9 m k m k k k m k m m m m l S m m m m m m m m m m k m m k k ; U %.#.#.#.%.#.#.#.%.%.> ",
"> ..#.#.#.#.G 5 : ; ; : : : : ; ; ; ; ; : : : ; ; ; : : ; ; ; ; ; : : ; : g X.#.#.#.#.#.#.#.#.%.+., ",
"> ..$.$.$.$.@.D m m M M M M m M m m m m l S M M m m m m m m m m M M M M m | @.#.#.#.#.#.%.#.#.%.+.< ",
"> ..#.$.$.#.#.#.@.@.@.@.@.@.@.@.@.@.@.@.@.@.@.@.@.@.@.@.@.@.@.@.@.@.@.@.@.#.#.#.#.#.#.#.#.#.#.%.%.< ",
"> ..#.#.#.#.#.$.%.#.%.#.%.#.%.%.%.#.@.#.#.#.#.%.%.#.#.#.#.#.#.#.%.%.%.#.%.%.%.$.#.%.%.#.#.#.#.%.+., ",
"> ..#.#.#.#.#.| L I I I I U I I L } L } L } L L L L L L } L L } U U L L I I I I I I | #.#.#.#.%.-., ",
"> ..#.#.#.#.} i : 1 , , 1 , , 1 : 1 : 1 : 1 : 1 1 1 1 1 1 1 : : , , 4 , , , 1 < , , d } #.#.#.%.%.> ",
"> ..$.$.#.#.i d h p i i i i 9 0 i i i i i i i i i i i i i i i i i i i i i i 0 0 i h p d #.#.#.%.+.> ",
"> ..$.#.$.$.i d < A W W W W W W W W W W W W W W ! W W W W W W W W W W W W W W Q V 1 0 p $.#.$.%.%.> ",
"> ..#.#.$.#.i p 6 l.L.L.L.L.K.L.L.K.L.K.K.L.K.K.K.K.K.K.K.K.L.K.K.K.K.K.L.K.L.P.e.6 i f $.#.$.%.+.> ",
"> ..#.#.#.$.9 p 6 k.L.K.K.K.J.K.J.K.K.K.K.K.K.J.K.K.J.K.J.K.K.K.J.K.K.K.K.K.J.K.e.2 i f %.#.#.$.-.> ",
"> ..#.#.$.$.i p 3 k.L.K.K.K.K.J.K.K.K.J.K.K.K.K.K.K.K.K.K.K.K.K.K.K.K.K.K.K.K.K.e.2 i p %.#.$.%.%.> ",
"> ..$.#.$.$.9 p 3 k.L.K.K.K.K.K.K.J.K.J.K.K.K.K.K.K.K.K.J.K.K.K.K.K.K.K.K.K.K.L.e.5 9 f %.$.$.%.$.> ",
"> X.$.$.#.$.i p q k.L.L.K.L.L.L.L.L.L.L.L.L.K.K.L.L.L.L.L.L.K.K.L.L.K.L.K.L.K.L.w.2 9 a $.$.#.$.$.> ",
"> ..#.$.$.$.9 p 3 k.J.z.l.l.l.l.l.l.l.l.l.l.l.l.l.l.l.l.l.l.l.l.l.l.l.l.l.l.z.K.e.6 9 f $.$.%.%.+.< ",
"> ..$.$.$.$.9 p q k.m.A v v v v v v v v v v v v v v v v v v v v v v v v v v P B.e.3 0 a %.$.$.%.+.< ",
": ..#.#.$.#.9 p 8 k.K.G.B.B.B.B.B.B.B.B.B.B.B.B.B.B.B.B.B.B.B.B.B.B.B.B.B.B.G.L.e.5 9 a $.#.#.%.-., ",
": ..#.#.$.$.9 i 2 k.K.K.K.K.K.K.K.K.L.K.L.L.K.K.L.K.L.L.K.K.L.L.L.K.L.L.K.K.J.P.e.2 9 a $.#.#.%.+.> ",
"> ..#.#.$.$.9 5 2 k.P.P.P.P.P.P.P.P.P.P.P.P.P.P.P.P.L.L.P.P.P.P.P.P.P.P.L.P.L.L.e.1 5 a $.#.#.%.%.> ",
"> ..#.$.$.$.9 7 2 k.B.-.( ( ( ( ( ( ( ( ( ( ( ( ( ( ( ( ( ( ( ( ( ( ( ( ( ( *.H.e., 5 f $.#.#.%.+.> ",
"> ..#.$.#.$.i 7 2 k.B.>.=.=.=.=.*.=.=.=.=.=.=.=.=.=.=.=.=.=.=.=.=.=.=.=.=.=.:.H.e.1 5 p $.#.#.%.$.> ",
"; U #.#.$.X.5 7 2 k.P.P.P.L.P.P.P.P.P.P.P.P.P.P.P.P.P.L.P.P.P.P.P.L.P.P.P.L.P.P.e.2 5 i @.#.#.o.+.> ",
"; K } | } } 5 5 2 k.P.K.K.K.L.K.P.K.K.K.P.K.L.K.L.L.L.L.K.K.L.K.L.L.L.K.L.L.K.P.e.1 5 7 } } } } +.> ",
"@ J U U U U 5 7 2 k.K.M.m.m.m.m.m.m.m.m.m.m.m.m.m.m.m.m.m.m.m.m.m.m.m.m.m.m.m.L.e.1 5 7 } U I } +.> ",
"; J } U U U 5 7 2 k.m.A v v v v v v v v v v v v v n v v v v v v v v v v n v P B.e.2 5 9 U } U } +.> ",
"; J U U } U 5 5 4 k.J.N.M.M.M.m.m.m.M.M.M.M.M.m.m.M.m.m.m.M.M.m.m.M.m.m.m.m.N.L.e.1 5 7 U U U } +.> ",
"+ D U } U L 4 7 2 k.P.P.P.K.L.K.L.L.L.L.P.L.L.K.L.L.L.L.P.L.L.L.P.L.L.L.L.L.P.P.e.1 6 7 U U U } o.> ",
"; k K K J D , 7 2 l.P.P.P.P.P.P.L.L.L.L.P.P.P.P.P.L.P.P.P.P.P.L.P.P.P.P.L.L.P.P.r.1 6 1 D K J D o.> ",
"O k k 7 f S ; + + / *.&.*.*.*.-.&.*.&.&.&.&.&.&.*.-.*.&.&.&.&.&.*.*.-.*.*.&.&.*.Q O ; 1 S p 5 S o.> ",
"+ f f E c f , - e w w w w w w r t t t t t t t t t t t t t t t t t t t t t t t t r e * , p n E g ^ < ",
"+ 9 z f.~ 4 , y ` _ _ _ _ ` _ ] { { { { { { { { { { { { { { { { { { { { { { { { [ ` y 1 1 O.i.s I < ",
"+ f j c j k , y _ _ _ _ _ _ _ ] { { { { { { { { { { { { { { { { { { { { { { { { [ ` t , h j c j  .> ",
"@ k k 7 f k , y ) ) ) ) ) ) ) _ ] ] ] ] ] ] ] ] ] ] ] ] ] ] ] ] ] ] ] ] ] ] ] ] ` ) t , m d 7 m ..< ",
"  + + + + O . X & $ & $ $ $ $ & & % = % % * * * * * * * * * * * = & = = % * * * * & X . O + + + 2   "
};
